G04 #@! TF.GenerationSoftware,KiCad,Pcbnew,5.0.2+dfsg1-1*
G04 #@! TF.CreationDate,2019-02-11T07:24:08+11:00*
G04 #@! TF.ProjectId,swinggate,7377696e-6767-4617-9465-2e6b69636164,rev?*
G04 #@! TF.SameCoordinates,Original*
G04 #@! TF.FileFunction,Copper,L2,Bot*
G04 #@! TF.FilePolarity,Positive*
%FSLAX46Y46*%
G04 Gerber Fmt 4.6, Leading zero omitted, Abs format (unit mm)*
G04 Created by KiCad (PCBNEW 5.0.2+dfsg1-1) date Mon 11 Feb 2019 07:24:08 AEDT*
%MOMM*%
%LPD*%
G01*
G04 APERTURE LIST*
G04 #@! TA.AperFunction,ComponentPad*
%ADD10O,6.000000X6.000000*%
G04 #@! TD*
G04 #@! TA.AperFunction,ComponentPad*
%ADD11O,3.500000X3.500000*%
G04 #@! TD*
G04 #@! TA.AperFunction,ComponentPad*
%ADD12O,1.600000X1.600000*%
G04 #@! TD*
G04 #@! TA.AperFunction,ComponentPad*
%ADD13C,5.600000*%
G04 #@! TD*
G04 #@! TA.AperFunction,ComponentPad*
%ADD14O,1.800000X3.600000*%
G04 #@! TD*
G04 #@! TA.AperFunction,Conductor*
%ADD15C,0.100000*%
G04 #@! TD*
G04 #@! TA.AperFunction,ComponentPad*
%ADD16C,1.800000*%
G04 #@! TD*
G04 #@! TA.AperFunction,ComponentPad*
%ADD17O,3.600000X1.800000*%
G04 #@! TD*
G04 #@! TA.AperFunction,ComponentPad*
%ADD18O,3.000000X3.000000*%
G04 #@! TD*
G04 #@! TA.AperFunction,ComponentPad*
%ADD19R,1.600000X1.600000*%
G04 #@! TD*
G04 #@! TA.AperFunction,ViaPad*
%ADD20C,2.000000*%
G04 #@! TD*
G04 #@! TA.AperFunction,ViaPad*
%ADD21C,1.500000*%
G04 #@! TD*
G04 #@! TA.AperFunction,Conductor*
%ADD22C,0.250000*%
G04 #@! TD*
G04 #@! TA.AperFunction,Conductor*
%ADD23C,2.000000*%
G04 #@! TD*
G04 #@! TA.AperFunction,Conductor*
%ADD24C,1.000000*%
G04 #@! TD*
G04 #@! TA.AperFunction,Conductor*
%ADD25C,0.254000*%
G04 #@! TD*
G04 APERTURE END LIST*
D10*
G04 #@! TO.P,U3,16*
G04 #@! TO.N,Net-(U3-Pad16)*
X143890001Y-66420001D03*
G04 #@! TO.P,U3,15*
G04 #@! TO.N,Net-(U3-Pad15)*
X183890001Y-66420001D03*
G04 #@! TO.P,U3,14*
G04 #@! TO.N,Net-(U3-Pad14)*
X183890001Y-106420001D03*
G04 #@! TO.P,U3,13*
G04 #@! TO.N,Net-(U3-Pad13)*
X143890001Y-106420001D03*
D11*
G04 #@! TO.P,U3,12*
G04 #@! TO.N,GND*
X166430001Y-106740001D03*
G04 #@! TO.P,U3,11*
G04 #@! TO.N,+12V*
X161350001Y-106740001D03*
G04 #@! TO.P,U3,10*
G04 #@! TO.N,/MR*
X156270001Y-106740001D03*
G04 #@! TO.P,U3,9*
G04 #@! TO.N,/ML*
X151190001Y-106740001D03*
D12*
G04 #@! TO.P,U3,8*
G04 #@! TO.N,GND*
X158810001Y-63560001D03*
G04 #@! TO.P,U3,7*
G04 #@! TO.N,+3V3*
X158810001Y-66100001D03*
G04 #@! TO.P,U3,6*
G04 #@! TO.N,/IM_L*
X156270001Y-63560001D03*
G04 #@! TO.P,U3,5*
G04 #@! TO.N,/IM_R*
X156270001Y-66100001D03*
G04 #@! TO.P,U3,4*
G04 #@! TO.N,/PWM_L*
X153730001Y-63560001D03*
G04 #@! TO.P,U3,3*
G04 #@! TO.N,/PWM_R*
X153730001Y-66100001D03*
G04 #@! TO.P,U3,2*
G04 #@! TO.N,/DRN_L*
X151190001Y-63560001D03*
G04 #@! TO.P,U3,1*
G04 #@! TO.N,/DRN_R*
X151190001Y-66100001D03*
G04 #@! TD*
D13*
G04 #@! TO.P,H1,1*
G04 #@! TO.N,N/C*
X78740000Y-64770000D03*
G04 #@! TD*
G04 #@! TO.P,H2,1*
G04 #@! TO.N,N/C*
X78740000Y-119380000D03*
G04 #@! TD*
G04 #@! TO.P,H3,1*
G04 #@! TO.N,N/C*
X182880000Y-119380000D03*
G04 #@! TD*
D14*
G04 #@! TO.P,J1,2*
G04 #@! TO.N,+12V*
X134620000Y-116840000D03*
D15*
G04 #@! TD*
G04 #@! TO.N,GND*
G04 #@! TO.C,J1*
G36*
X130214504Y-115041204D02*
X130238773Y-115044804D01*
X130262571Y-115050765D01*
X130285671Y-115059030D01*
X130307849Y-115069520D01*
X130328893Y-115082133D01*
X130348598Y-115096747D01*
X130366777Y-115113223D01*
X130383253Y-115131402D01*
X130397867Y-115151107D01*
X130410480Y-115172151D01*
X130420970Y-115194329D01*
X130429235Y-115217429D01*
X130435196Y-115241227D01*
X130438796Y-115265496D01*
X130440000Y-115290000D01*
X130440000Y-118390000D01*
X130438796Y-118414504D01*
X130435196Y-118438773D01*
X130429235Y-118462571D01*
X130420970Y-118485671D01*
X130410480Y-118507849D01*
X130397867Y-118528893D01*
X130383253Y-118548598D01*
X130366777Y-118566777D01*
X130348598Y-118583253D01*
X130328893Y-118597867D01*
X130307849Y-118610480D01*
X130285671Y-118620970D01*
X130262571Y-118629235D01*
X130238773Y-118635196D01*
X130214504Y-118638796D01*
X130190000Y-118640000D01*
X128890000Y-118640000D01*
X128865496Y-118638796D01*
X128841227Y-118635196D01*
X128817429Y-118629235D01*
X128794329Y-118620970D01*
X128772151Y-118610480D01*
X128751107Y-118597867D01*
X128731402Y-118583253D01*
X128713223Y-118566777D01*
X128696747Y-118548598D01*
X128682133Y-118528893D01*
X128669520Y-118507849D01*
X128659030Y-118485671D01*
X128650765Y-118462571D01*
X128644804Y-118438773D01*
X128641204Y-118414504D01*
X128640000Y-118390000D01*
X128640000Y-115290000D01*
X128641204Y-115265496D01*
X128644804Y-115241227D01*
X128650765Y-115217429D01*
X128659030Y-115194329D01*
X128669520Y-115172151D01*
X128682133Y-115151107D01*
X128696747Y-115131402D01*
X128713223Y-115113223D01*
X128731402Y-115096747D01*
X128751107Y-115082133D01*
X128772151Y-115069520D01*
X128794329Y-115059030D01*
X128817429Y-115050765D01*
X128841227Y-115044804D01*
X128865496Y-115041204D01*
X128890000Y-115040000D01*
X130190000Y-115040000D01*
X130214504Y-115041204D01*
X130214504Y-115041204D01*
G37*
D16*
G04 #@! TO.P,J1,1*
G04 #@! TO.N,GND*
X129540000Y-116840000D03*
G04 #@! TD*
D14*
G04 #@! TO.P,J3,2*
G04 #@! TO.N,Net-(J3-Pad2)*
X91440000Y-116840000D03*
D15*
G04 #@! TD*
G04 #@! TO.N,GND*
G04 #@! TO.C,J3*
G36*
X87034504Y-115041204D02*
X87058773Y-115044804D01*
X87082571Y-115050765D01*
X87105671Y-115059030D01*
X87127849Y-115069520D01*
X87148893Y-115082133D01*
X87168598Y-115096747D01*
X87186777Y-115113223D01*
X87203253Y-115131402D01*
X87217867Y-115151107D01*
X87230480Y-115172151D01*
X87240970Y-115194329D01*
X87249235Y-115217429D01*
X87255196Y-115241227D01*
X87258796Y-115265496D01*
X87260000Y-115290000D01*
X87260000Y-118390000D01*
X87258796Y-118414504D01*
X87255196Y-118438773D01*
X87249235Y-118462571D01*
X87240970Y-118485671D01*
X87230480Y-118507849D01*
X87217867Y-118528893D01*
X87203253Y-118548598D01*
X87186777Y-118566777D01*
X87168598Y-118583253D01*
X87148893Y-118597867D01*
X87127849Y-118610480D01*
X87105671Y-118620970D01*
X87082571Y-118629235D01*
X87058773Y-118635196D01*
X87034504Y-118638796D01*
X87010000Y-118640000D01*
X85710000Y-118640000D01*
X85685496Y-118638796D01*
X85661227Y-118635196D01*
X85637429Y-118629235D01*
X85614329Y-118620970D01*
X85592151Y-118610480D01*
X85571107Y-118597867D01*
X85551402Y-118583253D01*
X85533223Y-118566777D01*
X85516747Y-118548598D01*
X85502133Y-118528893D01*
X85489520Y-118507849D01*
X85479030Y-118485671D01*
X85470765Y-118462571D01*
X85464804Y-118438773D01*
X85461204Y-118414504D01*
X85460000Y-118390000D01*
X85460000Y-115290000D01*
X85461204Y-115265496D01*
X85464804Y-115241227D01*
X85470765Y-115217429D01*
X85479030Y-115194329D01*
X85489520Y-115172151D01*
X85502133Y-115151107D01*
X85516747Y-115131402D01*
X85533223Y-115113223D01*
X85551402Y-115096747D01*
X85571107Y-115082133D01*
X85592151Y-115069520D01*
X85614329Y-115059030D01*
X85637429Y-115050765D01*
X85661227Y-115044804D01*
X85685496Y-115041204D01*
X85710000Y-115040000D01*
X87010000Y-115040000D01*
X87034504Y-115041204D01*
X87034504Y-115041204D01*
G37*
D16*
G04 #@! TO.P,J3,1*
G04 #@! TO.N,GND*
X86360000Y-116840000D03*
G04 #@! TD*
D17*
G04 #@! TO.P,J4,2*
G04 #@! TO.N,/UNLOCK_N*
X81280000Y-78740000D03*
D15*
G04 #@! TD*
G04 #@! TO.N,+12V*
G04 #@! TO.C,J4*
G36*
X82854504Y-72761204D02*
X82878773Y-72764804D01*
X82902571Y-72770765D01*
X82925671Y-72779030D01*
X82947849Y-72789520D01*
X82968893Y-72802133D01*
X82988598Y-72816747D01*
X83006777Y-72833223D01*
X83023253Y-72851402D01*
X83037867Y-72871107D01*
X83050480Y-72892151D01*
X83060970Y-72914329D01*
X83069235Y-72937429D01*
X83075196Y-72961227D01*
X83078796Y-72985496D01*
X83080000Y-73010000D01*
X83080000Y-74310000D01*
X83078796Y-74334504D01*
X83075196Y-74358773D01*
X83069235Y-74382571D01*
X83060970Y-74405671D01*
X83050480Y-74427849D01*
X83037867Y-74448893D01*
X83023253Y-74468598D01*
X83006777Y-74486777D01*
X82988598Y-74503253D01*
X82968893Y-74517867D01*
X82947849Y-74530480D01*
X82925671Y-74540970D01*
X82902571Y-74549235D01*
X82878773Y-74555196D01*
X82854504Y-74558796D01*
X82830000Y-74560000D01*
X79730000Y-74560000D01*
X79705496Y-74558796D01*
X79681227Y-74555196D01*
X79657429Y-74549235D01*
X79634329Y-74540970D01*
X79612151Y-74530480D01*
X79591107Y-74517867D01*
X79571402Y-74503253D01*
X79553223Y-74486777D01*
X79536747Y-74468598D01*
X79522133Y-74448893D01*
X79509520Y-74427849D01*
X79499030Y-74405671D01*
X79490765Y-74382571D01*
X79484804Y-74358773D01*
X79481204Y-74334504D01*
X79480000Y-74310000D01*
X79480000Y-73010000D01*
X79481204Y-72985496D01*
X79484804Y-72961227D01*
X79490765Y-72937429D01*
X79499030Y-72914329D01*
X79509520Y-72892151D01*
X79522133Y-72871107D01*
X79536747Y-72851402D01*
X79553223Y-72833223D01*
X79571402Y-72816747D01*
X79591107Y-72802133D01*
X79612151Y-72789520D01*
X79634329Y-72779030D01*
X79657429Y-72770765D01*
X79681227Y-72764804D01*
X79705496Y-72761204D01*
X79730000Y-72760000D01*
X82830000Y-72760000D01*
X82854504Y-72761204D01*
X82854504Y-72761204D01*
G37*
D16*
G04 #@! TO.P,J4,1*
G04 #@! TO.N,+12V*
X81280000Y-73660000D03*
G04 #@! TD*
D14*
G04 #@! TO.P,J5,2*
G04 #@! TO.N,/MR*
X156210000Y-116840000D03*
D15*
G04 #@! TD*
G04 #@! TO.N,/ML*
G04 #@! TO.C,J5*
G36*
X151804504Y-115041204D02*
X151828773Y-115044804D01*
X151852571Y-115050765D01*
X151875671Y-115059030D01*
X151897849Y-115069520D01*
X151918893Y-115082133D01*
X151938598Y-115096747D01*
X151956777Y-115113223D01*
X151973253Y-115131402D01*
X151987867Y-115151107D01*
X152000480Y-115172151D01*
X152010970Y-115194329D01*
X152019235Y-115217429D01*
X152025196Y-115241227D01*
X152028796Y-115265496D01*
X152030000Y-115290000D01*
X152030000Y-118390000D01*
X152028796Y-118414504D01*
X152025196Y-118438773D01*
X152019235Y-118462571D01*
X152010970Y-118485671D01*
X152000480Y-118507849D01*
X151987867Y-118528893D01*
X151973253Y-118548598D01*
X151956777Y-118566777D01*
X151938598Y-118583253D01*
X151918893Y-118597867D01*
X151897849Y-118610480D01*
X151875671Y-118620970D01*
X151852571Y-118629235D01*
X151828773Y-118635196D01*
X151804504Y-118638796D01*
X151780000Y-118640000D01*
X150480000Y-118640000D01*
X150455496Y-118638796D01*
X150431227Y-118635196D01*
X150407429Y-118629235D01*
X150384329Y-118620970D01*
X150362151Y-118610480D01*
X150341107Y-118597867D01*
X150321402Y-118583253D01*
X150303223Y-118566777D01*
X150286747Y-118548598D01*
X150272133Y-118528893D01*
X150259520Y-118507849D01*
X150249030Y-118485671D01*
X150240765Y-118462571D01*
X150234804Y-118438773D01*
X150231204Y-118414504D01*
X150230000Y-118390000D01*
X150230000Y-115290000D01*
X150231204Y-115265496D01*
X150234804Y-115241227D01*
X150240765Y-115217429D01*
X150249030Y-115194329D01*
X150259520Y-115172151D01*
X150272133Y-115151107D01*
X150286747Y-115131402D01*
X150303223Y-115113223D01*
X150321402Y-115096747D01*
X150341107Y-115082133D01*
X150362151Y-115069520D01*
X150384329Y-115059030D01*
X150407429Y-115050765D01*
X150431227Y-115044804D01*
X150455496Y-115041204D01*
X150480000Y-115040000D01*
X151780000Y-115040000D01*
X151804504Y-115041204D01*
X151804504Y-115041204D01*
G37*
D16*
G04 #@! TO.P,J5,1*
G04 #@! TO.N,/ML*
X151130000Y-116840000D03*
G04 #@! TD*
D18*
G04 #@! TO.P,U1,4*
G04 #@! TO.N,GND*
X88550000Y-89060000D03*
G04 #@! TO.P,U1,3*
X88550000Y-109060000D03*
G04 #@! TO.P,U1,2*
G04 #@! TO.N,+3V3*
X76550000Y-109060000D03*
G04 #@! TO.P,U1,1*
G04 #@! TO.N,+12V*
X76550000Y-89060000D03*
G04 #@! TD*
D12*
G04 #@! TO.P,U2,26*
G04 #@! TO.N,Net-(U2-Pad26)*
X130810000Y-62230000D03*
G04 #@! TO.P,U2,25*
G04 #@! TO.N,Net-(U2-Pad25)*
X130810000Y-64770000D03*
G04 #@! TO.P,U2,24*
G04 #@! TO.N,Net-(U2-Pad24)*
X130810000Y-67310000D03*
G04 #@! TO.P,U2,12*
G04 #@! TO.N,Net-(U2-Pad12)*
X110490000Y-90170000D03*
G04 #@! TO.P,U2,23*
G04 #@! TO.N,Net-(U2-Pad23)*
X130810000Y-69850000D03*
G04 #@! TO.P,U2,11*
G04 #@! TO.N,+3V3*
X110490000Y-87630000D03*
G04 #@! TO.P,U2,22*
G04 #@! TO.N,/UNLOCK*
X130810000Y-72390000D03*
G04 #@! TO.P,U2,10*
G04 #@! TO.N,Net-(U2-Pad10)*
X110490000Y-85090000D03*
G04 #@! TO.P,U2,21*
G04 #@! TO.N,Net-(U2-Pad21)*
X130810000Y-74930000D03*
G04 #@! TO.P,U2,9*
G04 #@! TO.N,Net-(U2-Pad9)*
X110490000Y-82550000D03*
G04 #@! TO.P,U2,20*
G04 #@! TO.N,/START_N_FB*
X130810000Y-77470000D03*
G04 #@! TO.P,U2,8*
G04 #@! TO.N,/MR_BEMF_FB*
X110490000Y-80010000D03*
G04 #@! TO.P,U2,19*
G04 #@! TO.N,/DRN_L*
X130810000Y-80010000D03*
G04 #@! TO.P,U2,7*
G04 #@! TO.N,/ML_BEMF_FB*
X110490000Y-77470000D03*
G04 #@! TO.P,U2,18*
G04 #@! TO.N,/PWM_L*
X130810000Y-82550000D03*
G04 #@! TO.P,U2,6*
G04 #@! TO.N,/IM_FB_R*
X110490000Y-74930000D03*
G04 #@! TO.P,U2,17*
G04 #@! TO.N,/DRN_R*
X130810000Y-85090000D03*
G04 #@! TO.P,U2,5*
G04 #@! TO.N,/IM_FB_L*
X110490000Y-72390000D03*
G04 #@! TO.P,U2,16*
G04 #@! TO.N,/PWM_R*
X130810000Y-87630000D03*
G04 #@! TO.P,U2,4*
G04 #@! TO.N,/BATTV_FB*
X110490000Y-69850000D03*
G04 #@! TO.P,U2,15*
G04 #@! TO.N,Net-(U2-Pad15)*
X130810000Y-90170000D03*
G04 #@! TO.P,U2,3*
G04 #@! TO.N,/AUTOCLOSE*
X110490000Y-67310000D03*
G04 #@! TO.P,U2,14*
G04 #@! TO.N,Net-(U2-Pad14)*
X130810000Y-92710000D03*
G04 #@! TO.P,U2,2*
G04 #@! TO.N,Net-(U2-Pad2)*
X110490000Y-64770000D03*
G04 #@! TO.P,U2,13*
G04 #@! TO.N,GND*
X110490000Y-92710000D03*
D19*
G04 #@! TO.P,U2,1*
G04 #@! TO.N,Net-(U2-Pad1)*
X110490000Y-62230000D03*
G04 #@! TD*
D14*
G04 #@! TO.P,J2,4*
G04 #@! TO.N,+12V*
X118110000Y-116840000D03*
G04 #@! TO.P,J2,3*
G04 #@! TO.N,GND*
X113030000Y-116840000D03*
G04 #@! TO.P,J2,2*
X107950000Y-116840000D03*
D15*
G04 #@! TD*
G04 #@! TO.N,/START_N*
G04 #@! TO.C,J2*
G36*
X103544504Y-115041204D02*
X103568773Y-115044804D01*
X103592571Y-115050765D01*
X103615671Y-115059030D01*
X103637849Y-115069520D01*
X103658893Y-115082133D01*
X103678598Y-115096747D01*
X103696777Y-115113223D01*
X103713253Y-115131402D01*
X103727867Y-115151107D01*
X103740480Y-115172151D01*
X103750970Y-115194329D01*
X103759235Y-115217429D01*
X103765196Y-115241227D01*
X103768796Y-115265496D01*
X103770000Y-115290000D01*
X103770000Y-118390000D01*
X103768796Y-118414504D01*
X103765196Y-118438773D01*
X103759235Y-118462571D01*
X103750970Y-118485671D01*
X103740480Y-118507849D01*
X103727867Y-118528893D01*
X103713253Y-118548598D01*
X103696777Y-118566777D01*
X103678598Y-118583253D01*
X103658893Y-118597867D01*
X103637849Y-118610480D01*
X103615671Y-118620970D01*
X103592571Y-118629235D01*
X103568773Y-118635196D01*
X103544504Y-118638796D01*
X103520000Y-118640000D01*
X102220000Y-118640000D01*
X102195496Y-118638796D01*
X102171227Y-118635196D01*
X102147429Y-118629235D01*
X102124329Y-118620970D01*
X102102151Y-118610480D01*
X102081107Y-118597867D01*
X102061402Y-118583253D01*
X102043223Y-118566777D01*
X102026747Y-118548598D01*
X102012133Y-118528893D01*
X101999520Y-118507849D01*
X101989030Y-118485671D01*
X101980765Y-118462571D01*
X101974804Y-118438773D01*
X101971204Y-118414504D01*
X101970000Y-118390000D01*
X101970000Y-115290000D01*
X101971204Y-115265496D01*
X101974804Y-115241227D01*
X101980765Y-115217429D01*
X101989030Y-115194329D01*
X101999520Y-115172151D01*
X102012133Y-115151107D01*
X102026747Y-115131402D01*
X102043223Y-115113223D01*
X102061402Y-115096747D01*
X102081107Y-115082133D01*
X102102151Y-115069520D01*
X102124329Y-115059030D01*
X102147429Y-115050765D01*
X102171227Y-115044804D01*
X102195496Y-115041204D01*
X102220000Y-115040000D01*
X103520000Y-115040000D01*
X103544504Y-115041204D01*
X103544504Y-115041204D01*
G37*
D16*
G04 #@! TO.P,J2,1*
G04 #@! TO.N,/START_N*
X102870000Y-116840000D03*
G04 #@! TD*
D20*
G04 #@! TO.N,GND*
X105410000Y-71374000D03*
X103321000Y-71374000D03*
X102051000Y-72644000D03*
X100781000Y-73914000D03*
X166116000Y-70612000D03*
X166116000Y-68834000D03*
X118872000Y-68580000D03*
X115062000Y-74676000D03*
X122682000Y-83820000D03*
X103632000Y-96774000D03*
X122174000Y-109220000D03*
X122174000Y-105410000D03*
X125222000Y-95758000D03*
D21*
G04 #@! TO.N,/START_N_FB*
X119380000Y-89408000D03*
X123190000Y-77216000D03*
G04 #@! TO.N,/ML_BEMF_FB*
X119126000Y-91694000D03*
X116840000Y-85598000D03*
G04 #@! TO.N,/MR_BEMF_FB*
X117856000Y-93472000D03*
X114808000Y-82804000D03*
D20*
G04 #@! TO.N,/ML*
X151130000Y-98044000D03*
D21*
G04 #@! TO.N,/UNLOCK*
X87884000Y-70866000D03*
X102616000Y-66548000D03*
G04 #@! TO.N,/AUTOCLOSE*
X100076000Y-80772000D03*
X100076000Y-85852000D03*
G04 #@! TO.N,/IM_R*
X144272000Y-79248000D03*
X139192000Y-74168000D03*
G04 #@! TO.N,+3V3*
X83312000Y-102362000D03*
X92964000Y-95758000D03*
X97028000Y-95758000D03*
G04 #@! TD*
D22*
G04 #@! TO.N,/START_N_FB*
X123190000Y-77216000D02*
X119380000Y-81026000D01*
X119380000Y-81026000D02*
X119380000Y-89408000D01*
X119380000Y-89408000D02*
X119380000Y-89662000D01*
G04 #@! TO.N,/ML_BEMF_FB*
X116840000Y-85598000D02*
X116840000Y-89408000D01*
X116840000Y-89408000D02*
X119126000Y-91694000D01*
X119126000Y-91694000D02*
X119380000Y-91694000D01*
X119126000Y-91694000D02*
X119126000Y-91694000D01*
G04 #@! TO.N,/MR_BEMF_FB*
X115316000Y-90932000D02*
X117856000Y-93472000D01*
X114808000Y-82804000D02*
X114808000Y-83864660D01*
X115316000Y-84372660D02*
X115316000Y-90932000D01*
X114808000Y-83864660D02*
X115316000Y-84372660D01*
D23*
G04 #@! TO.N,/ML*
X151190001Y-98104001D02*
X151130000Y-98044000D01*
D22*
X151190001Y-106740001D02*
X151190001Y-98104001D01*
G04 #@! TO.N,/UNLOCK*
X96774000Y-70866000D02*
X87884000Y-70866000D01*
X102616000Y-66548000D02*
X102616000Y-66548000D01*
X101092000Y-66548000D02*
X96774000Y-70866000D01*
X102616000Y-66548000D02*
X101092000Y-66548000D01*
G04 #@! TO.N,/AUTOCLOSE*
X100076000Y-85090000D02*
X100076000Y-80772000D01*
X100076000Y-80772000D02*
X100076000Y-80772000D01*
X100076000Y-85090000D02*
X100076000Y-85852000D01*
G04 #@! TO.N,/IM_R*
X144272000Y-79248000D02*
X139192000Y-74168000D01*
X139192000Y-74168000D02*
X139192000Y-74168000D01*
D24*
G04 #@! TO.N,+3V3*
X78049999Y-107560001D02*
X78113999Y-107560001D01*
X76550000Y-109060000D02*
X78049999Y-107560001D01*
X78113999Y-107560001D02*
X83312000Y-102362000D01*
X92964000Y-95758000D02*
X97028000Y-95758000D01*
G04 #@! TD*
D25*
G04 #@! TO.N,GND*
G36*
X189103000Y-123063000D02*
X75057000Y-123063000D01*
X75057000Y-118696736D01*
X75305000Y-118696736D01*
X75305000Y-120063264D01*
X75827947Y-121325771D01*
X76794229Y-122292053D01*
X78056736Y-122815000D01*
X79423264Y-122815000D01*
X80685771Y-122292053D01*
X81652053Y-121325771D01*
X82175000Y-120063264D01*
X82175000Y-118696736D01*
X81652053Y-117434229D01*
X81343574Y-117125750D01*
X84825000Y-117125750D01*
X84825000Y-118766310D01*
X84921673Y-118999699D01*
X85100302Y-119178327D01*
X85333691Y-119275000D01*
X86074250Y-119275000D01*
X86233000Y-119116250D01*
X86233000Y-116967000D01*
X86487000Y-116967000D01*
X86487000Y-119116250D01*
X86645750Y-119275000D01*
X87386309Y-119275000D01*
X87619698Y-119178327D01*
X87798327Y-118999699D01*
X87895000Y-118766310D01*
X87895000Y-117125750D01*
X87736250Y-116967000D01*
X86487000Y-116967000D01*
X86233000Y-116967000D01*
X84983750Y-116967000D01*
X84825000Y-117125750D01*
X81343574Y-117125750D01*
X80685771Y-116467947D01*
X79423264Y-115945000D01*
X78056736Y-115945000D01*
X76794229Y-116467947D01*
X75827947Y-117434229D01*
X75305000Y-118696736D01*
X75057000Y-118696736D01*
X75057000Y-114913690D01*
X84825000Y-114913690D01*
X84825000Y-116554250D01*
X84983750Y-116713000D01*
X86233000Y-116713000D01*
X86233000Y-114563750D01*
X86487000Y-114563750D01*
X86487000Y-116713000D01*
X87736250Y-116713000D01*
X87895000Y-116554250D01*
X87895000Y-115788819D01*
X89905000Y-115788819D01*
X89905001Y-117891182D01*
X89994063Y-118338927D01*
X90333328Y-118846673D01*
X90841074Y-119185938D01*
X91440000Y-119305072D01*
X92038927Y-119185938D01*
X92546673Y-118846673D01*
X92885938Y-118338927D01*
X92975000Y-117891182D01*
X92975000Y-115788818D01*
X92885938Y-115341073D01*
X92851813Y-115290000D01*
X101322560Y-115290000D01*
X101322560Y-118390000D01*
X101390874Y-118733435D01*
X101585414Y-119024586D01*
X101876565Y-119219126D01*
X102220000Y-119287440D01*
X103520000Y-119287440D01*
X103863435Y-119219126D01*
X104154586Y-119024586D01*
X104349126Y-118733435D01*
X104417440Y-118390000D01*
X104417440Y-116967000D01*
X106415000Y-116967000D01*
X106415000Y-117867000D01*
X106580446Y-118444752D01*
X106954394Y-118915212D01*
X107479914Y-119206756D01*
X107585260Y-119231036D01*
X107823000Y-119110378D01*
X107823000Y-116967000D01*
X108077000Y-116967000D01*
X108077000Y-119110378D01*
X108314740Y-119231036D01*
X108420086Y-119206756D01*
X108945606Y-118915212D01*
X109319554Y-118444752D01*
X109485000Y-117867000D01*
X109485000Y-116967000D01*
X111495000Y-116967000D01*
X111495000Y-117867000D01*
X111660446Y-118444752D01*
X112034394Y-118915212D01*
X112559914Y-119206756D01*
X112665260Y-119231036D01*
X112903000Y-119110378D01*
X112903000Y-116967000D01*
X113157000Y-116967000D01*
X113157000Y-119110378D01*
X113394740Y-119231036D01*
X113500086Y-119206756D01*
X114025606Y-118915212D01*
X114399554Y-118444752D01*
X114565000Y-117867000D01*
X114565000Y-116967000D01*
X113157000Y-116967000D01*
X112903000Y-116967000D01*
X111495000Y-116967000D01*
X109485000Y-116967000D01*
X108077000Y-116967000D01*
X107823000Y-116967000D01*
X106415000Y-116967000D01*
X104417440Y-116967000D01*
X104417440Y-115813000D01*
X106415000Y-115813000D01*
X106415000Y-116713000D01*
X107823000Y-116713000D01*
X107823000Y-114569622D01*
X108077000Y-114569622D01*
X108077000Y-116713000D01*
X109485000Y-116713000D01*
X109485000Y-115813000D01*
X111495000Y-115813000D01*
X111495000Y-116713000D01*
X112903000Y-116713000D01*
X112903000Y-114569622D01*
X113157000Y-114569622D01*
X113157000Y-116713000D01*
X114565000Y-116713000D01*
X114565000Y-115813000D01*
X114558076Y-115788819D01*
X116575000Y-115788819D01*
X116575001Y-117891182D01*
X116664063Y-118338927D01*
X117003328Y-118846673D01*
X117511074Y-119185938D01*
X118110000Y-119305072D01*
X118708927Y-119185938D01*
X119216673Y-118846673D01*
X119555938Y-118338927D01*
X119645000Y-117891182D01*
X119645000Y-117125750D01*
X128005000Y-117125750D01*
X128005000Y-118766310D01*
X128101673Y-118999699D01*
X128280302Y-119178327D01*
X128513691Y-119275000D01*
X129254250Y-119275000D01*
X129413000Y-119116250D01*
X129413000Y-116967000D01*
X129667000Y-116967000D01*
X129667000Y-119116250D01*
X129825750Y-119275000D01*
X130566309Y-119275000D01*
X130799698Y-119178327D01*
X130978327Y-118999699D01*
X131075000Y-118766310D01*
X131075000Y-117125750D01*
X130916250Y-116967000D01*
X129667000Y-116967000D01*
X129413000Y-116967000D01*
X128163750Y-116967000D01*
X128005000Y-117125750D01*
X119645000Y-117125750D01*
X119645000Y-115788818D01*
X119555938Y-115341073D01*
X119270370Y-114913690D01*
X128005000Y-114913690D01*
X128005000Y-116554250D01*
X128163750Y-116713000D01*
X129413000Y-116713000D01*
X129413000Y-114563750D01*
X129667000Y-114563750D01*
X129667000Y-116713000D01*
X130916250Y-116713000D01*
X131075000Y-116554250D01*
X131075000Y-115788819D01*
X133085000Y-115788819D01*
X133085001Y-117891182D01*
X133174063Y-118338927D01*
X133513328Y-118846673D01*
X134021074Y-119185938D01*
X134620000Y-119305072D01*
X135218927Y-119185938D01*
X135726673Y-118846673D01*
X136065938Y-118338927D01*
X136155000Y-117891182D01*
X136155000Y-115788818D01*
X136065938Y-115341073D01*
X136031813Y-115290000D01*
X149582560Y-115290000D01*
X149582560Y-118390000D01*
X149650874Y-118733435D01*
X149845414Y-119024586D01*
X150136565Y-119219126D01*
X150480000Y-119287440D01*
X151780000Y-119287440D01*
X152123435Y-119219126D01*
X152414586Y-119024586D01*
X152609126Y-118733435D01*
X152677440Y-118390000D01*
X152677440Y-115788819D01*
X154675000Y-115788819D01*
X154675001Y-117891182D01*
X154764063Y-118338927D01*
X155103328Y-118846673D01*
X155611074Y-119185938D01*
X156210000Y-119305072D01*
X156808927Y-119185938D01*
X157316673Y-118846673D01*
X157416857Y-118696736D01*
X179445000Y-118696736D01*
X179445000Y-120063264D01*
X179967947Y-121325771D01*
X180934229Y-122292053D01*
X182196736Y-122815000D01*
X183563264Y-122815000D01*
X184825771Y-122292053D01*
X185792053Y-121325771D01*
X186315000Y-120063264D01*
X186315000Y-118696736D01*
X185792053Y-117434229D01*
X184825771Y-116467947D01*
X183563264Y-115945000D01*
X182196736Y-115945000D01*
X180934229Y-116467947D01*
X179967947Y-117434229D01*
X179445000Y-118696736D01*
X157416857Y-118696736D01*
X157655938Y-118338927D01*
X157745000Y-117891182D01*
X157745000Y-115788818D01*
X157655938Y-115341073D01*
X157316673Y-114833327D01*
X156808926Y-114494062D01*
X156210000Y-114374928D01*
X155611073Y-114494062D01*
X155103327Y-114833327D01*
X154764062Y-115341074D01*
X154675000Y-115788819D01*
X152677440Y-115788819D01*
X152677440Y-115290000D01*
X152609126Y-114946565D01*
X152414586Y-114655414D01*
X152123435Y-114460874D01*
X151780000Y-114392560D01*
X150480000Y-114392560D01*
X150136565Y-114460874D01*
X149845414Y-114655414D01*
X149650874Y-114946565D01*
X149582560Y-115290000D01*
X136031813Y-115290000D01*
X135726673Y-114833327D01*
X135218926Y-114494062D01*
X134620000Y-114374928D01*
X134021073Y-114494062D01*
X133513327Y-114833327D01*
X133174062Y-115341074D01*
X133085000Y-115788819D01*
X131075000Y-115788819D01*
X131075000Y-114913690D01*
X130978327Y-114680301D01*
X130799698Y-114501673D01*
X130566309Y-114405000D01*
X129825750Y-114405000D01*
X129667000Y-114563750D01*
X129413000Y-114563750D01*
X129254250Y-114405000D01*
X128513691Y-114405000D01*
X128280302Y-114501673D01*
X128101673Y-114680301D01*
X128005000Y-114913690D01*
X119270370Y-114913690D01*
X119216673Y-114833327D01*
X118708926Y-114494062D01*
X118110000Y-114374928D01*
X117511073Y-114494062D01*
X117003327Y-114833327D01*
X116664062Y-115341074D01*
X116575000Y-115788819D01*
X114558076Y-115788819D01*
X114399554Y-115235248D01*
X114025606Y-114764788D01*
X113500086Y-114473244D01*
X113394740Y-114448964D01*
X113157000Y-114569622D01*
X112903000Y-114569622D01*
X112665260Y-114448964D01*
X112559914Y-114473244D01*
X112034394Y-114764788D01*
X111660446Y-115235248D01*
X111495000Y-115813000D01*
X109485000Y-115813000D01*
X109319554Y-115235248D01*
X108945606Y-114764788D01*
X108420086Y-114473244D01*
X108314740Y-114448964D01*
X108077000Y-114569622D01*
X107823000Y-114569622D01*
X107585260Y-114448964D01*
X107479914Y-114473244D01*
X106954394Y-114764788D01*
X106580446Y-115235248D01*
X106415000Y-115813000D01*
X104417440Y-115813000D01*
X104417440Y-115290000D01*
X104349126Y-114946565D01*
X104154586Y-114655414D01*
X103863435Y-114460874D01*
X103520000Y-114392560D01*
X102220000Y-114392560D01*
X101876565Y-114460874D01*
X101585414Y-114655414D01*
X101390874Y-114946565D01*
X101322560Y-115290000D01*
X92851813Y-115290000D01*
X92546673Y-114833327D01*
X92038926Y-114494062D01*
X91440000Y-114374928D01*
X90841073Y-114494062D01*
X90333327Y-114833327D01*
X89994062Y-115341074D01*
X89905000Y-115788819D01*
X87895000Y-115788819D01*
X87895000Y-114913690D01*
X87798327Y-114680301D01*
X87619698Y-114501673D01*
X87386309Y-114405000D01*
X86645750Y-114405000D01*
X86487000Y-114563750D01*
X86233000Y-114563750D01*
X86074250Y-114405000D01*
X85333691Y-114405000D01*
X85100302Y-114501673D01*
X84921673Y-114680301D01*
X84825000Y-114913690D01*
X75057000Y-114913690D01*
X75057000Y-110630152D01*
X75716964Y-111071126D01*
X76339721Y-111195000D01*
X76760279Y-111195000D01*
X77383036Y-111071126D01*
X78089249Y-110599249D01*
X78561126Y-109893036D01*
X78635559Y-109518833D01*
X86464887Y-109518833D01*
X86751153Y-110209958D01*
X87328152Y-110810812D01*
X88091166Y-111145120D01*
X88423000Y-111032476D01*
X88423000Y-109187000D01*
X88677000Y-109187000D01*
X88677000Y-111032476D01*
X89008834Y-111145120D01*
X89771848Y-110810812D01*
X90348847Y-110209958D01*
X90635113Y-109518833D01*
X90522165Y-109187000D01*
X88677000Y-109187000D01*
X88423000Y-109187000D01*
X86577835Y-109187000D01*
X86464887Y-109518833D01*
X78635559Y-109518833D01*
X78726827Y-109060000D01*
X78635560Y-108601167D01*
X86464887Y-108601167D01*
X86577835Y-108933000D01*
X88423000Y-108933000D01*
X88423000Y-107087524D01*
X88677000Y-107087524D01*
X88677000Y-108933000D01*
X90522165Y-108933000D01*
X90635113Y-108601167D01*
X90348847Y-107910042D01*
X89771848Y-107309188D01*
X89008834Y-106974880D01*
X88677000Y-107087524D01*
X88423000Y-107087524D01*
X88091166Y-106974880D01*
X87328152Y-107309188D01*
X86751153Y-107910042D01*
X86464887Y-108601167D01*
X78635560Y-108601167D01*
X78631977Y-108583155D01*
X78644645Y-108570487D01*
X78932288Y-108378290D01*
X78995612Y-108283519D01*
X80859130Y-106420001D01*
X140183788Y-106420001D01*
X140465907Y-107838307D01*
X141269313Y-109040689D01*
X142471695Y-109844095D01*
X143531990Y-110055001D01*
X144248012Y-110055001D01*
X145308307Y-109844095D01*
X146510689Y-109040689D01*
X147314095Y-107838307D01*
X147532561Y-106740001D01*
X148758277Y-106740001D01*
X148943381Y-107670581D01*
X149470512Y-108459490D01*
X150259421Y-108986621D01*
X150955104Y-109125001D01*
X151424898Y-109125001D01*
X152120581Y-108986621D01*
X152909490Y-108459490D01*
X153436621Y-107670581D01*
X153621725Y-106740001D01*
X153838277Y-106740001D01*
X154023381Y-107670581D01*
X154550512Y-108459490D01*
X155339421Y-108986621D01*
X156035104Y-109125001D01*
X156504898Y-109125001D01*
X157200581Y-108986621D01*
X157989490Y-108459490D01*
X158516621Y-107670581D01*
X158701725Y-106740001D01*
X158918277Y-106740001D01*
X159103381Y-107670581D01*
X159630512Y-108459490D01*
X160419421Y-108986621D01*
X161115104Y-109125001D01*
X161584898Y-109125001D01*
X162280581Y-108986621D01*
X163069490Y-108459490D01*
X163596621Y-107670581D01*
X163682665Y-107238004D01*
X164097574Y-107238004D01*
X164428580Y-108037138D01*
X165077322Y-108704310D01*
X165931997Y-109072434D01*
X166303001Y-108962873D01*
X166303001Y-106867001D01*
X166557001Y-106867001D01*
X166557001Y-108962873D01*
X166928005Y-109072434D01*
X167782680Y-108704310D01*
X168431422Y-108037138D01*
X168762428Y-107238004D01*
X168652626Y-106867001D01*
X166557001Y-106867001D01*
X166303001Y-106867001D01*
X164207376Y-106867001D01*
X164097574Y-107238004D01*
X163682665Y-107238004D01*
X163781725Y-106740001D01*
X163682666Y-106241998D01*
X164097574Y-106241998D01*
X164207376Y-106613001D01*
X166303001Y-106613001D01*
X166303001Y-104517129D01*
X166557001Y-104517129D01*
X166557001Y-106613001D01*
X168652626Y-106613001D01*
X168709746Y-106420001D01*
X180183788Y-106420001D01*
X180465907Y-107838307D01*
X181269313Y-109040689D01*
X182471695Y-109844095D01*
X183531990Y-110055001D01*
X184248012Y-110055001D01*
X185308307Y-109844095D01*
X186510689Y-109040689D01*
X187314095Y-107838307D01*
X187596214Y-106420001D01*
X187314095Y-105001695D01*
X186510689Y-103799313D01*
X185308307Y-102995907D01*
X184248012Y-102785001D01*
X183531990Y-102785001D01*
X182471695Y-102995907D01*
X181269313Y-103799313D01*
X180465907Y-105001695D01*
X180183788Y-106420001D01*
X168709746Y-106420001D01*
X168762428Y-106241998D01*
X168431422Y-105442864D01*
X167782680Y-104775692D01*
X166928005Y-104407568D01*
X166557001Y-104517129D01*
X166303001Y-104517129D01*
X165931997Y-104407568D01*
X165077322Y-104775692D01*
X164428580Y-105442864D01*
X164097574Y-106241998D01*
X163682666Y-106241998D01*
X163596621Y-105809421D01*
X163069490Y-105020512D01*
X162280581Y-104493381D01*
X161584898Y-104355001D01*
X161115104Y-104355001D01*
X160419421Y-104493381D01*
X159630512Y-105020512D01*
X159103381Y-105809421D01*
X158918277Y-106740001D01*
X158701725Y-106740001D01*
X158516621Y-105809421D01*
X157989490Y-105020512D01*
X157200581Y-104493381D01*
X156504898Y-104355001D01*
X156035104Y-104355001D01*
X155339421Y-104493381D01*
X154550512Y-105020512D01*
X154023381Y-105809421D01*
X153838277Y-106740001D01*
X153621725Y-106740001D01*
X153436621Y-105809421D01*
X152909490Y-105020512D01*
X152120581Y-104493381D01*
X151950001Y-104459451D01*
X151950001Y-99562581D01*
X152368769Y-99282769D01*
X152730136Y-98741946D01*
X152857031Y-98104000D01*
X152730136Y-97466056D01*
X152546448Y-97191148D01*
X152516086Y-97117847D01*
X152056153Y-96657914D01*
X151904457Y-96595079D01*
X151767945Y-96503865D01*
X151606918Y-96471834D01*
X151455222Y-96409000D01*
X151291030Y-96409000D01*
X151130000Y-96376969D01*
X150968970Y-96409000D01*
X150804778Y-96409000D01*
X150653082Y-96471834D01*
X150492055Y-96503865D01*
X150355544Y-96595079D01*
X150203847Y-96657914D01*
X150087743Y-96774018D01*
X149951232Y-96865232D01*
X149860018Y-97001743D01*
X149743914Y-97117847D01*
X149681079Y-97269544D01*
X149589865Y-97406055D01*
X149557834Y-97567082D01*
X149495000Y-97718778D01*
X149495000Y-97882970D01*
X149462969Y-98044000D01*
X149495000Y-98205030D01*
X149495000Y-98369222D01*
X149557834Y-98520918D01*
X149589865Y-98681945D01*
X149681079Y-98818457D01*
X149743914Y-98970153D01*
X150203847Y-99430086D01*
X150277148Y-99460448D01*
X150430002Y-99562582D01*
X150430001Y-104459450D01*
X150259421Y-104493381D01*
X149470512Y-105020512D01*
X148943381Y-105809421D01*
X148758277Y-106740001D01*
X147532561Y-106740001D01*
X147596214Y-106420001D01*
X147314095Y-105001695D01*
X146510689Y-103799313D01*
X145308307Y-102995907D01*
X144248012Y-102785001D01*
X143531990Y-102785001D01*
X142471695Y-102995907D01*
X141269313Y-103799313D01*
X140465907Y-105001695D01*
X140183788Y-106420001D01*
X80859130Y-106420001D01*
X83532133Y-103747000D01*
X83587494Y-103747000D01*
X84096540Y-103536147D01*
X84486147Y-103146540D01*
X84697000Y-102637494D01*
X84697000Y-102086506D01*
X84486147Y-101577460D01*
X84096540Y-101187853D01*
X83587494Y-100977000D01*
X83036506Y-100977000D01*
X82527460Y-101187853D01*
X82137853Y-101577460D01*
X81927000Y-102086506D01*
X81927000Y-102141867D01*
X77519355Y-106549513D01*
X77231710Y-106741712D01*
X77168388Y-106836480D01*
X77026845Y-106978023D01*
X76760279Y-106925000D01*
X76339721Y-106925000D01*
X75716964Y-107048874D01*
X75057000Y-107489848D01*
X75057000Y-95482506D01*
X91579000Y-95482506D01*
X91579000Y-96033494D01*
X91789853Y-96542540D01*
X92179460Y-96932147D01*
X92688506Y-97143000D01*
X93239494Y-97143000D01*
X93748540Y-96932147D01*
X93787687Y-96893000D01*
X96204313Y-96893000D01*
X96243460Y-96932147D01*
X96752506Y-97143000D01*
X97303494Y-97143000D01*
X97812540Y-96932147D01*
X98202147Y-96542540D01*
X98413000Y-96033494D01*
X98413000Y-95482506D01*
X98202147Y-94973460D01*
X97812540Y-94583853D01*
X97303494Y-94373000D01*
X96752506Y-94373000D01*
X96243460Y-94583853D01*
X96204313Y-94623000D01*
X93787687Y-94623000D01*
X93748540Y-94583853D01*
X93239494Y-94373000D01*
X92688506Y-94373000D01*
X92179460Y-94583853D01*
X91789853Y-94973460D01*
X91579000Y-95482506D01*
X75057000Y-95482506D01*
X75057000Y-93059039D01*
X109098096Y-93059039D01*
X109258959Y-93447423D01*
X109634866Y-93862389D01*
X110140959Y-94101914D01*
X110363000Y-93980629D01*
X110363000Y-92837000D01*
X110617000Y-92837000D01*
X110617000Y-93980629D01*
X110839041Y-94101914D01*
X111345134Y-93862389D01*
X111721041Y-93447423D01*
X111881904Y-93059039D01*
X111759915Y-92837000D01*
X110617000Y-92837000D01*
X110363000Y-92837000D01*
X109220085Y-92837000D01*
X109098096Y-93059039D01*
X75057000Y-93059039D01*
X75057000Y-90630152D01*
X75716964Y-91071126D01*
X76339721Y-91195000D01*
X76760279Y-91195000D01*
X77383036Y-91071126D01*
X78089249Y-90599249D01*
X78561126Y-89893036D01*
X78635559Y-89518833D01*
X86464887Y-89518833D01*
X86751153Y-90209958D01*
X87328152Y-90810812D01*
X88091166Y-91145120D01*
X88423000Y-91032476D01*
X88423000Y-89187000D01*
X88677000Y-89187000D01*
X88677000Y-91032476D01*
X89008834Y-91145120D01*
X89771848Y-90810812D01*
X90348847Y-90209958D01*
X90635113Y-89518833D01*
X90522165Y-89187000D01*
X88677000Y-89187000D01*
X88423000Y-89187000D01*
X86577835Y-89187000D01*
X86464887Y-89518833D01*
X78635559Y-89518833D01*
X78726827Y-89060000D01*
X78635560Y-88601167D01*
X86464887Y-88601167D01*
X86577835Y-88933000D01*
X88423000Y-88933000D01*
X88423000Y-87087524D01*
X88677000Y-87087524D01*
X88677000Y-88933000D01*
X90522165Y-88933000D01*
X90635113Y-88601167D01*
X90348847Y-87910042D01*
X89771848Y-87309188D01*
X89008834Y-86974880D01*
X88677000Y-87087524D01*
X88423000Y-87087524D01*
X88091166Y-86974880D01*
X87328152Y-87309188D01*
X86751153Y-87910042D01*
X86464887Y-88601167D01*
X78635560Y-88601167D01*
X78561126Y-88226964D01*
X78089249Y-87520751D01*
X77383036Y-87048874D01*
X76760279Y-86925000D01*
X76339721Y-86925000D01*
X75716964Y-87048874D01*
X75057000Y-87489848D01*
X75057000Y-80496506D01*
X98691000Y-80496506D01*
X98691000Y-81047494D01*
X98901853Y-81556540D01*
X99291460Y-81946147D01*
X99316001Y-81956312D01*
X99316000Y-84667688D01*
X99291460Y-84677853D01*
X98901853Y-85067460D01*
X98691000Y-85576506D01*
X98691000Y-86127494D01*
X98901853Y-86636540D01*
X99291460Y-87026147D01*
X99800506Y-87237000D01*
X100351494Y-87237000D01*
X100860540Y-87026147D01*
X101250147Y-86636540D01*
X101461000Y-86127494D01*
X101461000Y-85576506D01*
X101250147Y-85067460D01*
X100860540Y-84677853D01*
X100836000Y-84667688D01*
X100836000Y-81956312D01*
X100860540Y-81946147D01*
X101250147Y-81556540D01*
X101461000Y-81047494D01*
X101461000Y-80496506D01*
X101250147Y-79987460D01*
X100860540Y-79597853D01*
X100351494Y-79387000D01*
X99800506Y-79387000D01*
X99291460Y-79597853D01*
X98901853Y-79987460D01*
X98691000Y-80496506D01*
X75057000Y-80496506D01*
X75057000Y-78740000D01*
X78814928Y-78740000D01*
X78934062Y-79338927D01*
X79273327Y-79846673D01*
X79781073Y-80185938D01*
X80228818Y-80275000D01*
X82331182Y-80275000D01*
X82778927Y-80185938D01*
X83286673Y-79846673D01*
X83625938Y-79338927D01*
X83745072Y-78740000D01*
X83625938Y-78141073D01*
X83286673Y-77633327D01*
X82778927Y-77294062D01*
X82331182Y-77205000D01*
X80228818Y-77205000D01*
X79781073Y-77294062D01*
X79273327Y-77633327D01*
X78934062Y-78141073D01*
X78814928Y-78740000D01*
X75057000Y-78740000D01*
X75057000Y-73010000D01*
X78832560Y-73010000D01*
X78832560Y-74310000D01*
X78900874Y-74653435D01*
X79095414Y-74944586D01*
X79386565Y-75139126D01*
X79730000Y-75207440D01*
X82830000Y-75207440D01*
X83173435Y-75139126D01*
X83464586Y-74944586D01*
X83659126Y-74653435D01*
X83727440Y-74310000D01*
X83727440Y-73010000D01*
X83659126Y-72666565D01*
X83464586Y-72375414D01*
X83173435Y-72180874D01*
X82830000Y-72112560D01*
X79730000Y-72112560D01*
X79386565Y-72180874D01*
X79095414Y-72375414D01*
X78900874Y-72666565D01*
X78832560Y-73010000D01*
X75057000Y-73010000D01*
X75057000Y-70590506D01*
X86499000Y-70590506D01*
X86499000Y-71141494D01*
X86709853Y-71650540D01*
X87099460Y-72040147D01*
X87608506Y-72251000D01*
X88159494Y-72251000D01*
X88668540Y-72040147D01*
X89058147Y-71650540D01*
X89068312Y-71626000D01*
X96699153Y-71626000D01*
X96774000Y-71640888D01*
X96848847Y-71626000D01*
X96848852Y-71626000D01*
X97070537Y-71581904D01*
X97321929Y-71413929D01*
X97364331Y-71350470D01*
X101406802Y-67308000D01*
X101431688Y-67308000D01*
X101441853Y-67332540D01*
X101831460Y-67722147D01*
X102340506Y-67933000D01*
X102891494Y-67933000D01*
X103400540Y-67722147D01*
X103790147Y-67332540D01*
X104001000Y-66823494D01*
X104001000Y-66272506D01*
X103790147Y-65763460D01*
X103400540Y-65373853D01*
X102891494Y-65163000D01*
X102340506Y-65163000D01*
X101831460Y-65373853D01*
X101441853Y-65763460D01*
X101431688Y-65788000D01*
X101166846Y-65788000D01*
X101091999Y-65773112D01*
X101017152Y-65788000D01*
X101017148Y-65788000D01*
X100795463Y-65832096D01*
X100544071Y-66000071D01*
X100501671Y-66063527D01*
X96459199Y-70106000D01*
X89068312Y-70106000D01*
X89058147Y-70081460D01*
X88668540Y-69691853D01*
X88159494Y-69481000D01*
X87608506Y-69481000D01*
X87099460Y-69691853D01*
X86709853Y-70081460D01*
X86499000Y-70590506D01*
X75057000Y-70590506D01*
X75057000Y-64086736D01*
X75305000Y-64086736D01*
X75305000Y-65453264D01*
X75827947Y-66715771D01*
X76794229Y-67682053D01*
X78056736Y-68205000D01*
X79423264Y-68205000D01*
X80685771Y-67682053D01*
X81652053Y-66715771D01*
X82175000Y-65453264D01*
X82175000Y-64770000D01*
X109026887Y-64770000D01*
X109138260Y-65329909D01*
X109455423Y-65804577D01*
X109807758Y-66040000D01*
X109455423Y-66275423D01*
X109138260Y-66750091D01*
X109026887Y-67310000D01*
X109138260Y-67869909D01*
X109455423Y-68344577D01*
X109807758Y-68580000D01*
X109455423Y-68815423D01*
X109138260Y-69290091D01*
X109026887Y-69850000D01*
X109138260Y-70409909D01*
X109455423Y-70884577D01*
X109807758Y-71120000D01*
X109455423Y-71355423D01*
X109138260Y-71830091D01*
X109026887Y-72390000D01*
X109138260Y-72949909D01*
X109455423Y-73424577D01*
X109807758Y-73660000D01*
X109455423Y-73895423D01*
X109138260Y-74370091D01*
X109026887Y-74930000D01*
X109138260Y-75489909D01*
X109455423Y-75964577D01*
X109807758Y-76200000D01*
X109455423Y-76435423D01*
X109138260Y-76910091D01*
X109026887Y-77470000D01*
X109138260Y-78029909D01*
X109455423Y-78504577D01*
X109807758Y-78740000D01*
X109455423Y-78975423D01*
X109138260Y-79450091D01*
X109026887Y-80010000D01*
X109138260Y-80569909D01*
X109455423Y-81044577D01*
X109807758Y-81280000D01*
X109455423Y-81515423D01*
X109138260Y-81990091D01*
X109026887Y-82550000D01*
X109138260Y-83109909D01*
X109455423Y-83584577D01*
X109807758Y-83820000D01*
X109455423Y-84055423D01*
X109138260Y-84530091D01*
X109026887Y-85090000D01*
X109138260Y-85649909D01*
X109455423Y-86124577D01*
X109807758Y-86360000D01*
X109455423Y-86595423D01*
X109138260Y-87070091D01*
X109026887Y-87630000D01*
X109138260Y-88189909D01*
X109455423Y-88664577D01*
X109807758Y-88900000D01*
X109455423Y-89135423D01*
X109138260Y-89610091D01*
X109026887Y-90170000D01*
X109138260Y-90729909D01*
X109455423Y-91204577D01*
X109839108Y-91460947D01*
X109634866Y-91557611D01*
X109258959Y-91972577D01*
X109098096Y-92360961D01*
X109220085Y-92583000D01*
X110363000Y-92583000D01*
X110363000Y-92563000D01*
X110617000Y-92563000D01*
X110617000Y-92583000D01*
X111759915Y-92583000D01*
X111881904Y-92360961D01*
X111721041Y-91972577D01*
X111345134Y-91557611D01*
X111140892Y-91460947D01*
X111524577Y-91204577D01*
X111841740Y-90729909D01*
X111953113Y-90170000D01*
X111841740Y-89610091D01*
X111524577Y-89135423D01*
X111172242Y-88900000D01*
X111524577Y-88664577D01*
X111841740Y-88189909D01*
X111953113Y-87630000D01*
X111841740Y-87070091D01*
X111524577Y-86595423D01*
X111172242Y-86360000D01*
X111524577Y-86124577D01*
X111841740Y-85649909D01*
X111953113Y-85090000D01*
X111841740Y-84530091D01*
X111524577Y-84055423D01*
X111172242Y-83820000D01*
X111524577Y-83584577D01*
X111841740Y-83109909D01*
X111953113Y-82550000D01*
X111948838Y-82528506D01*
X113423000Y-82528506D01*
X113423000Y-83079494D01*
X113633853Y-83588540D01*
X114023460Y-83978147D01*
X114058580Y-83992694D01*
X114092097Y-84161197D01*
X114183378Y-84297808D01*
X114260072Y-84412589D01*
X114323527Y-84454988D01*
X114556000Y-84687462D01*
X114556001Y-90857148D01*
X114541112Y-90932000D01*
X114556001Y-91006852D01*
X114600097Y-91228537D01*
X114768072Y-91479929D01*
X114831528Y-91522329D01*
X116481164Y-93171967D01*
X116471000Y-93196506D01*
X116471000Y-93747494D01*
X116681853Y-94256540D01*
X117071460Y-94646147D01*
X117580506Y-94857000D01*
X118131494Y-94857000D01*
X118640540Y-94646147D01*
X119030147Y-94256540D01*
X119241000Y-93747494D01*
X119241000Y-93196506D01*
X119192328Y-93079000D01*
X119401494Y-93079000D01*
X119910540Y-92868147D01*
X120300147Y-92478540D01*
X120511000Y-91969494D01*
X120511000Y-91418506D01*
X120300147Y-90909460D01*
X120028983Y-90638296D01*
X120164540Y-90582147D01*
X120554147Y-90192540D01*
X120765000Y-89683494D01*
X120765000Y-89132506D01*
X120554147Y-88623460D01*
X120164540Y-88233853D01*
X120140000Y-88223688D01*
X120140000Y-81340801D01*
X122889966Y-78590835D01*
X122914506Y-78601000D01*
X123465494Y-78601000D01*
X123974540Y-78390147D01*
X124364147Y-78000540D01*
X124575000Y-77491494D01*
X124575000Y-76940506D01*
X124364147Y-76431460D01*
X123974540Y-76041853D01*
X123465494Y-75831000D01*
X122914506Y-75831000D01*
X122405460Y-76041853D01*
X122015853Y-76431460D01*
X121805000Y-76940506D01*
X121805000Y-77491494D01*
X121815165Y-77516034D01*
X118895530Y-80435669D01*
X118832071Y-80478071D01*
X118664096Y-80729464D01*
X118620000Y-80951149D01*
X118620000Y-80951153D01*
X118605112Y-81026000D01*
X118620000Y-81100847D01*
X118620001Y-88223688D01*
X118595460Y-88233853D01*
X118205853Y-88623460D01*
X117995000Y-89132506D01*
X117995000Y-89488199D01*
X117600000Y-89093199D01*
X117600000Y-86782312D01*
X117624540Y-86772147D01*
X118014147Y-86382540D01*
X118225000Y-85873494D01*
X118225000Y-85322506D01*
X118014147Y-84813460D01*
X117624540Y-84423853D01*
X117115494Y-84213000D01*
X116564506Y-84213000D01*
X116082972Y-84412457D01*
X116090888Y-84372659D01*
X116076000Y-84297812D01*
X116076000Y-84297808D01*
X116031904Y-84076123D01*
X115990102Y-84013562D01*
X115906329Y-83888186D01*
X115906327Y-83888184D01*
X115863929Y-83824731D01*
X115800475Y-83782333D01*
X115794415Y-83776272D01*
X115982147Y-83588540D01*
X116193000Y-83079494D01*
X116193000Y-82528506D01*
X115982147Y-82019460D01*
X115592540Y-81629853D01*
X115083494Y-81419000D01*
X114532506Y-81419000D01*
X114023460Y-81629853D01*
X113633853Y-82019460D01*
X113423000Y-82528506D01*
X111948838Y-82528506D01*
X111841740Y-81990091D01*
X111524577Y-81515423D01*
X111172242Y-81280000D01*
X111524577Y-81044577D01*
X111841740Y-80569909D01*
X111953113Y-80010000D01*
X111841740Y-79450091D01*
X111524577Y-78975423D01*
X111172242Y-78740000D01*
X111524577Y-78504577D01*
X111841740Y-78029909D01*
X111953113Y-77470000D01*
X111841740Y-76910091D01*
X111524577Y-76435423D01*
X111172242Y-76200000D01*
X111524577Y-75964577D01*
X111841740Y-75489909D01*
X111953113Y-74930000D01*
X111841740Y-74370091D01*
X111524577Y-73895423D01*
X111172242Y-73660000D01*
X111524577Y-73424577D01*
X111841740Y-72949909D01*
X111953113Y-72390000D01*
X111841740Y-71830091D01*
X111524577Y-71355423D01*
X111172242Y-71120000D01*
X111524577Y-70884577D01*
X111841740Y-70409909D01*
X111953113Y-69850000D01*
X111841740Y-69290091D01*
X111524577Y-68815423D01*
X111172242Y-68580000D01*
X111524577Y-68344577D01*
X111841740Y-67869909D01*
X111953113Y-67310000D01*
X111841740Y-66750091D01*
X111524577Y-66275423D01*
X111172242Y-66040000D01*
X111524577Y-65804577D01*
X111841740Y-65329909D01*
X111953113Y-64770000D01*
X111841740Y-64210091D01*
X111524577Y-63735423D01*
X111403894Y-63654785D01*
X111537765Y-63628157D01*
X111747809Y-63487809D01*
X111888157Y-63277765D01*
X111937440Y-63030000D01*
X111937440Y-62230000D01*
X129346887Y-62230000D01*
X129458260Y-62789909D01*
X129775423Y-63264577D01*
X130127758Y-63500000D01*
X129775423Y-63735423D01*
X129458260Y-64210091D01*
X129346887Y-64770000D01*
X129458260Y-65329909D01*
X129775423Y-65804577D01*
X130127758Y-66040000D01*
X129775423Y-66275423D01*
X129458260Y-66750091D01*
X129346887Y-67310000D01*
X129458260Y-67869909D01*
X129775423Y-68344577D01*
X130127758Y-68580000D01*
X129775423Y-68815423D01*
X129458260Y-69290091D01*
X129346887Y-69850000D01*
X129458260Y-70409909D01*
X129775423Y-70884577D01*
X130127758Y-71120000D01*
X129775423Y-71355423D01*
X129458260Y-71830091D01*
X129346887Y-72390000D01*
X129458260Y-72949909D01*
X129775423Y-73424577D01*
X130127758Y-73660000D01*
X129775423Y-73895423D01*
X129458260Y-74370091D01*
X129346887Y-74930000D01*
X129458260Y-75489909D01*
X129775423Y-75964577D01*
X130127758Y-76200000D01*
X129775423Y-76435423D01*
X129458260Y-76910091D01*
X129346887Y-77470000D01*
X129458260Y-78029909D01*
X129775423Y-78504577D01*
X130127758Y-78740000D01*
X129775423Y-78975423D01*
X129458260Y-79450091D01*
X129346887Y-80010000D01*
X129458260Y-80569909D01*
X129775423Y-81044577D01*
X130127758Y-81280000D01*
X129775423Y-81515423D01*
X129458260Y-81990091D01*
X129346887Y-82550000D01*
X129458260Y-83109909D01*
X129775423Y-83584577D01*
X130127758Y-83820000D01*
X129775423Y-84055423D01*
X129458260Y-84530091D01*
X129346887Y-85090000D01*
X129458260Y-85649909D01*
X129775423Y-86124577D01*
X130127758Y-86360000D01*
X129775423Y-86595423D01*
X129458260Y-87070091D01*
X129346887Y-87630000D01*
X129458260Y-88189909D01*
X129775423Y-88664577D01*
X130127758Y-88900000D01*
X129775423Y-89135423D01*
X129458260Y-89610091D01*
X129346887Y-90170000D01*
X129458260Y-90729909D01*
X129775423Y-91204577D01*
X130127758Y-91440000D01*
X129775423Y-91675423D01*
X129458260Y-92150091D01*
X129346887Y-92710000D01*
X129458260Y-93269909D01*
X129775423Y-93744577D01*
X130250091Y-94061740D01*
X130668667Y-94145000D01*
X130951333Y-94145000D01*
X131369909Y-94061740D01*
X131844577Y-93744577D01*
X132161740Y-93269909D01*
X132273113Y-92710000D01*
X132161740Y-92150091D01*
X131844577Y-91675423D01*
X131492242Y-91440000D01*
X131844577Y-91204577D01*
X132161740Y-90729909D01*
X132273113Y-90170000D01*
X132161740Y-89610091D01*
X131844577Y-89135423D01*
X131492242Y-88900000D01*
X131844577Y-88664577D01*
X132161740Y-88189909D01*
X132273113Y-87630000D01*
X132161740Y-87070091D01*
X131844577Y-86595423D01*
X131492242Y-86360000D01*
X131844577Y-86124577D01*
X132161740Y-85649909D01*
X132273113Y-85090000D01*
X132161740Y-84530091D01*
X131844577Y-84055423D01*
X131492242Y-83820000D01*
X131844577Y-83584577D01*
X132161740Y-83109909D01*
X132273113Y-82550000D01*
X132161740Y-81990091D01*
X131844577Y-81515423D01*
X131492242Y-81280000D01*
X131844577Y-81044577D01*
X132161740Y-80569909D01*
X132273113Y-80010000D01*
X132161740Y-79450091D01*
X131844577Y-78975423D01*
X131492242Y-78740000D01*
X131844577Y-78504577D01*
X132161740Y-78029909D01*
X132273113Y-77470000D01*
X132161740Y-76910091D01*
X131844577Y-76435423D01*
X131492242Y-76200000D01*
X131844577Y-75964577D01*
X132161740Y-75489909D01*
X132273113Y-74930000D01*
X132161740Y-74370091D01*
X131844577Y-73895423D01*
X131840212Y-73892506D01*
X137807000Y-73892506D01*
X137807000Y-74443494D01*
X138017853Y-74952540D01*
X138407460Y-75342147D01*
X138916506Y-75553000D01*
X139467494Y-75553000D01*
X139492034Y-75542835D01*
X142897165Y-78947966D01*
X142887000Y-78972506D01*
X142887000Y-79523494D01*
X143097853Y-80032540D01*
X143487460Y-80422147D01*
X143996506Y-80633000D01*
X144547494Y-80633000D01*
X145056540Y-80422147D01*
X145446147Y-80032540D01*
X145657000Y-79523494D01*
X145657000Y-78972506D01*
X145446147Y-78463460D01*
X145056540Y-78073853D01*
X144547494Y-77863000D01*
X143996506Y-77863000D01*
X143971966Y-77873165D01*
X140566835Y-74468034D01*
X140577000Y-74443494D01*
X140577000Y-73892506D01*
X140366147Y-73383460D01*
X139976540Y-72993853D01*
X139467494Y-72783000D01*
X138916506Y-72783000D01*
X138407460Y-72993853D01*
X138017853Y-73383460D01*
X137807000Y-73892506D01*
X131840212Y-73892506D01*
X131492242Y-73660000D01*
X131844577Y-73424577D01*
X132161740Y-72949909D01*
X132273113Y-72390000D01*
X132161740Y-71830091D01*
X131844577Y-71355423D01*
X131492242Y-71120000D01*
X131844577Y-70884577D01*
X132161740Y-70409909D01*
X132273113Y-69850000D01*
X132161740Y-69290091D01*
X131844577Y-68815423D01*
X131492242Y-68580000D01*
X131844577Y-68344577D01*
X132161740Y-67869909D01*
X132273113Y-67310000D01*
X132161740Y-66750091D01*
X131941181Y-66420001D01*
X140183788Y-66420001D01*
X140465907Y-67838307D01*
X141269313Y-69040689D01*
X142471695Y-69844095D01*
X143531990Y-70055001D01*
X144248012Y-70055001D01*
X145308307Y-69844095D01*
X146510689Y-69040689D01*
X147314095Y-67838307D01*
X147596214Y-66420001D01*
X147314095Y-65001695D01*
X146510689Y-63799313D01*
X146152534Y-63560001D01*
X149726888Y-63560001D01*
X149838261Y-64119910D01*
X150155424Y-64594578D01*
X150507759Y-64830001D01*
X150155424Y-65065424D01*
X149838261Y-65540092D01*
X149726888Y-66100001D01*
X149838261Y-66659910D01*
X150155424Y-67134578D01*
X150630092Y-67451741D01*
X151048668Y-67535001D01*
X151331334Y-67535001D01*
X151749910Y-67451741D01*
X152224578Y-67134578D01*
X152460001Y-66782243D01*
X152695424Y-67134578D01*
X153170092Y-67451741D01*
X153588668Y-67535001D01*
X153871334Y-67535001D01*
X154289910Y-67451741D01*
X154764578Y-67134578D01*
X155000001Y-66782243D01*
X155235424Y-67134578D01*
X155710092Y-67451741D01*
X156128668Y-67535001D01*
X156411334Y-67535001D01*
X156829910Y-67451741D01*
X157304578Y-67134578D01*
X157540001Y-66782243D01*
X157775424Y-67134578D01*
X158250092Y-67451741D01*
X158668668Y-67535001D01*
X158951334Y-67535001D01*
X159369910Y-67451741D01*
X159844578Y-67134578D01*
X160161741Y-66659910D01*
X160209461Y-66420001D01*
X180183788Y-66420001D01*
X180465907Y-67838307D01*
X181269313Y-69040689D01*
X182471695Y-69844095D01*
X183531990Y-70055001D01*
X184248012Y-70055001D01*
X185308307Y-69844095D01*
X186510689Y-69040689D01*
X187314095Y-67838307D01*
X187596214Y-66420001D01*
X187314095Y-65001695D01*
X186510689Y-63799313D01*
X185308307Y-62995907D01*
X184248012Y-62785001D01*
X183531990Y-62785001D01*
X182471695Y-62995907D01*
X181269313Y-63799313D01*
X180465907Y-65001695D01*
X180183788Y-66420001D01*
X160209461Y-66420001D01*
X160273114Y-66100001D01*
X160161741Y-65540092D01*
X159844578Y-65065424D01*
X159460893Y-64809054D01*
X159665135Y-64712390D01*
X160041042Y-64297424D01*
X160201905Y-63909040D01*
X160079916Y-63687001D01*
X158937001Y-63687001D01*
X158937001Y-63707001D01*
X158683001Y-63707001D01*
X158683001Y-63687001D01*
X158663001Y-63687001D01*
X158663001Y-63433001D01*
X158683001Y-63433001D01*
X158683001Y-62289372D01*
X158937001Y-62289372D01*
X158937001Y-63433001D01*
X160079916Y-63433001D01*
X160201905Y-63210962D01*
X160041042Y-62822578D01*
X159665135Y-62407612D01*
X159159042Y-62168087D01*
X158937001Y-62289372D01*
X158683001Y-62289372D01*
X158460960Y-62168087D01*
X157954867Y-62407612D01*
X157578960Y-62822578D01*
X157549942Y-62892638D01*
X157304578Y-62525424D01*
X156829910Y-62208261D01*
X156411334Y-62125001D01*
X156128668Y-62125001D01*
X155710092Y-62208261D01*
X155235424Y-62525424D01*
X155000001Y-62877759D01*
X154764578Y-62525424D01*
X154289910Y-62208261D01*
X153871334Y-62125001D01*
X153588668Y-62125001D01*
X153170092Y-62208261D01*
X152695424Y-62525424D01*
X152460001Y-62877759D01*
X152224578Y-62525424D01*
X151749910Y-62208261D01*
X151331334Y-62125001D01*
X151048668Y-62125001D01*
X150630092Y-62208261D01*
X150155424Y-62525424D01*
X149838261Y-63000092D01*
X149726888Y-63560001D01*
X146152534Y-63560001D01*
X145308307Y-62995907D01*
X144248012Y-62785001D01*
X143531990Y-62785001D01*
X142471695Y-62995907D01*
X141269313Y-63799313D01*
X140465907Y-65001695D01*
X140183788Y-66420001D01*
X131941181Y-66420001D01*
X131844577Y-66275423D01*
X131492242Y-66040000D01*
X131844577Y-65804577D01*
X132161740Y-65329909D01*
X132273113Y-64770000D01*
X132161740Y-64210091D01*
X131844577Y-63735423D01*
X131492242Y-63500000D01*
X131844577Y-63264577D01*
X132161740Y-62789909D01*
X132273113Y-62230000D01*
X132161740Y-61670091D01*
X131844577Y-61195423D01*
X131369909Y-60878260D01*
X130951333Y-60795000D01*
X130668667Y-60795000D01*
X130250091Y-60878260D01*
X129775423Y-61195423D01*
X129458260Y-61670091D01*
X129346887Y-62230000D01*
X111937440Y-62230000D01*
X111937440Y-61430000D01*
X111888157Y-61182235D01*
X111747809Y-60972191D01*
X111537765Y-60831843D01*
X111290000Y-60782560D01*
X109690000Y-60782560D01*
X109442235Y-60831843D01*
X109232191Y-60972191D01*
X109091843Y-61182235D01*
X109042560Y-61430000D01*
X109042560Y-63030000D01*
X109091843Y-63277765D01*
X109232191Y-63487809D01*
X109442235Y-63628157D01*
X109576106Y-63654785D01*
X109455423Y-63735423D01*
X109138260Y-64210091D01*
X109026887Y-64770000D01*
X82175000Y-64770000D01*
X82175000Y-64086736D01*
X81652053Y-62824229D01*
X80685771Y-61857947D01*
X79423264Y-61335000D01*
X78056736Y-61335000D01*
X76794229Y-61857947D01*
X75827947Y-62824229D01*
X75305000Y-64086736D01*
X75057000Y-64086736D01*
X75057000Y-59817000D01*
X189103000Y-59817000D01*
X189103000Y-123063000D01*
X189103000Y-123063000D01*
G37*
X189103000Y-123063000D02*
X75057000Y-123063000D01*
X75057000Y-118696736D01*
X75305000Y-118696736D01*
X75305000Y-120063264D01*
X75827947Y-121325771D01*
X76794229Y-122292053D01*
X78056736Y-122815000D01*
X79423264Y-122815000D01*
X80685771Y-122292053D01*
X81652053Y-121325771D01*
X82175000Y-120063264D01*
X82175000Y-118696736D01*
X81652053Y-117434229D01*
X81343574Y-117125750D01*
X84825000Y-117125750D01*
X84825000Y-118766310D01*
X84921673Y-118999699D01*
X85100302Y-119178327D01*
X85333691Y-119275000D01*
X86074250Y-119275000D01*
X86233000Y-119116250D01*
X86233000Y-116967000D01*
X86487000Y-116967000D01*
X86487000Y-119116250D01*
X86645750Y-119275000D01*
X87386309Y-119275000D01*
X87619698Y-119178327D01*
X87798327Y-118999699D01*
X87895000Y-118766310D01*
X87895000Y-117125750D01*
X87736250Y-116967000D01*
X86487000Y-116967000D01*
X86233000Y-116967000D01*
X84983750Y-116967000D01*
X84825000Y-117125750D01*
X81343574Y-117125750D01*
X80685771Y-116467947D01*
X79423264Y-115945000D01*
X78056736Y-115945000D01*
X76794229Y-116467947D01*
X75827947Y-117434229D01*
X75305000Y-118696736D01*
X75057000Y-118696736D01*
X75057000Y-114913690D01*
X84825000Y-114913690D01*
X84825000Y-116554250D01*
X84983750Y-116713000D01*
X86233000Y-116713000D01*
X86233000Y-114563750D01*
X86487000Y-114563750D01*
X86487000Y-116713000D01*
X87736250Y-116713000D01*
X87895000Y-116554250D01*
X87895000Y-115788819D01*
X89905000Y-115788819D01*
X89905001Y-117891182D01*
X89994063Y-118338927D01*
X90333328Y-118846673D01*
X90841074Y-119185938D01*
X91440000Y-119305072D01*
X92038927Y-119185938D01*
X92546673Y-118846673D01*
X92885938Y-118338927D01*
X92975000Y-117891182D01*
X92975000Y-115788818D01*
X92885938Y-115341073D01*
X92851813Y-115290000D01*
X101322560Y-115290000D01*
X101322560Y-118390000D01*
X101390874Y-118733435D01*
X101585414Y-119024586D01*
X101876565Y-119219126D01*
X102220000Y-119287440D01*
X103520000Y-119287440D01*
X103863435Y-119219126D01*
X104154586Y-119024586D01*
X104349126Y-118733435D01*
X104417440Y-118390000D01*
X104417440Y-116967000D01*
X106415000Y-116967000D01*
X106415000Y-117867000D01*
X106580446Y-118444752D01*
X106954394Y-118915212D01*
X107479914Y-119206756D01*
X107585260Y-119231036D01*
X107823000Y-119110378D01*
X107823000Y-116967000D01*
X108077000Y-116967000D01*
X108077000Y-119110378D01*
X108314740Y-119231036D01*
X108420086Y-119206756D01*
X108945606Y-118915212D01*
X109319554Y-118444752D01*
X109485000Y-117867000D01*
X109485000Y-116967000D01*
X111495000Y-116967000D01*
X111495000Y-117867000D01*
X111660446Y-118444752D01*
X112034394Y-118915212D01*
X112559914Y-119206756D01*
X112665260Y-119231036D01*
X112903000Y-119110378D01*
X112903000Y-116967000D01*
X113157000Y-116967000D01*
X113157000Y-119110378D01*
X113394740Y-119231036D01*
X113500086Y-119206756D01*
X114025606Y-118915212D01*
X114399554Y-118444752D01*
X114565000Y-117867000D01*
X114565000Y-116967000D01*
X113157000Y-116967000D01*
X112903000Y-116967000D01*
X111495000Y-116967000D01*
X109485000Y-116967000D01*
X108077000Y-116967000D01*
X107823000Y-116967000D01*
X106415000Y-116967000D01*
X104417440Y-116967000D01*
X104417440Y-115813000D01*
X106415000Y-115813000D01*
X106415000Y-116713000D01*
X107823000Y-116713000D01*
X107823000Y-114569622D01*
X108077000Y-114569622D01*
X108077000Y-116713000D01*
X109485000Y-116713000D01*
X109485000Y-115813000D01*
X111495000Y-115813000D01*
X111495000Y-116713000D01*
X112903000Y-116713000D01*
X112903000Y-114569622D01*
X113157000Y-114569622D01*
X113157000Y-116713000D01*
X114565000Y-116713000D01*
X114565000Y-115813000D01*
X114558076Y-115788819D01*
X116575000Y-115788819D01*
X116575001Y-117891182D01*
X116664063Y-118338927D01*
X117003328Y-118846673D01*
X117511074Y-119185938D01*
X118110000Y-119305072D01*
X118708927Y-119185938D01*
X119216673Y-118846673D01*
X119555938Y-118338927D01*
X119645000Y-117891182D01*
X119645000Y-117125750D01*
X128005000Y-117125750D01*
X128005000Y-118766310D01*
X128101673Y-118999699D01*
X128280302Y-119178327D01*
X128513691Y-119275000D01*
X129254250Y-119275000D01*
X129413000Y-119116250D01*
X129413000Y-116967000D01*
X129667000Y-116967000D01*
X129667000Y-119116250D01*
X129825750Y-119275000D01*
X130566309Y-119275000D01*
X130799698Y-119178327D01*
X130978327Y-118999699D01*
X131075000Y-118766310D01*
X131075000Y-117125750D01*
X130916250Y-116967000D01*
X129667000Y-116967000D01*
X129413000Y-116967000D01*
X128163750Y-116967000D01*
X128005000Y-117125750D01*
X119645000Y-117125750D01*
X119645000Y-115788818D01*
X119555938Y-115341073D01*
X119270370Y-114913690D01*
X128005000Y-114913690D01*
X128005000Y-116554250D01*
X128163750Y-116713000D01*
X129413000Y-116713000D01*
X129413000Y-114563750D01*
X129667000Y-114563750D01*
X129667000Y-116713000D01*
X130916250Y-116713000D01*
X131075000Y-116554250D01*
X131075000Y-115788819D01*
X133085000Y-115788819D01*
X133085001Y-117891182D01*
X133174063Y-118338927D01*
X133513328Y-118846673D01*
X134021074Y-119185938D01*
X134620000Y-119305072D01*
X135218927Y-119185938D01*
X135726673Y-118846673D01*
X136065938Y-118338927D01*
X136155000Y-117891182D01*
X136155000Y-115788818D01*
X136065938Y-115341073D01*
X136031813Y-115290000D01*
X149582560Y-115290000D01*
X149582560Y-118390000D01*
X149650874Y-118733435D01*
X149845414Y-119024586D01*
X150136565Y-119219126D01*
X150480000Y-119287440D01*
X151780000Y-119287440D01*
X152123435Y-119219126D01*
X152414586Y-119024586D01*
X152609126Y-118733435D01*
X152677440Y-118390000D01*
X152677440Y-115788819D01*
X154675000Y-115788819D01*
X154675001Y-117891182D01*
X154764063Y-118338927D01*
X155103328Y-118846673D01*
X155611074Y-119185938D01*
X156210000Y-119305072D01*
X156808927Y-119185938D01*
X157316673Y-118846673D01*
X157416857Y-118696736D01*
X179445000Y-118696736D01*
X179445000Y-120063264D01*
X179967947Y-121325771D01*
X180934229Y-122292053D01*
X182196736Y-122815000D01*
X183563264Y-122815000D01*
X184825771Y-122292053D01*
X185792053Y-121325771D01*
X186315000Y-120063264D01*
X186315000Y-118696736D01*
X185792053Y-117434229D01*
X184825771Y-116467947D01*
X183563264Y-115945000D01*
X182196736Y-115945000D01*
X180934229Y-116467947D01*
X179967947Y-117434229D01*
X179445000Y-118696736D01*
X157416857Y-118696736D01*
X157655938Y-118338927D01*
X157745000Y-117891182D01*
X157745000Y-115788818D01*
X157655938Y-115341073D01*
X157316673Y-114833327D01*
X156808926Y-114494062D01*
X156210000Y-114374928D01*
X155611073Y-114494062D01*
X155103327Y-114833327D01*
X154764062Y-115341074D01*
X154675000Y-115788819D01*
X152677440Y-115788819D01*
X152677440Y-115290000D01*
X152609126Y-114946565D01*
X152414586Y-114655414D01*
X152123435Y-114460874D01*
X151780000Y-114392560D01*
X150480000Y-114392560D01*
X150136565Y-114460874D01*
X149845414Y-114655414D01*
X149650874Y-114946565D01*
X149582560Y-115290000D01*
X136031813Y-115290000D01*
X135726673Y-114833327D01*
X135218926Y-114494062D01*
X134620000Y-114374928D01*
X134021073Y-114494062D01*
X133513327Y-114833327D01*
X133174062Y-115341074D01*
X133085000Y-115788819D01*
X131075000Y-115788819D01*
X131075000Y-114913690D01*
X130978327Y-114680301D01*
X130799698Y-114501673D01*
X130566309Y-114405000D01*
X129825750Y-114405000D01*
X129667000Y-114563750D01*
X129413000Y-114563750D01*
X129254250Y-114405000D01*
X128513691Y-114405000D01*
X128280302Y-114501673D01*
X128101673Y-114680301D01*
X128005000Y-114913690D01*
X119270370Y-114913690D01*
X119216673Y-114833327D01*
X118708926Y-114494062D01*
X118110000Y-114374928D01*
X117511073Y-114494062D01*
X117003327Y-114833327D01*
X116664062Y-115341074D01*
X116575000Y-115788819D01*
X114558076Y-115788819D01*
X114399554Y-115235248D01*
X114025606Y-114764788D01*
X113500086Y-114473244D01*
X113394740Y-114448964D01*
X113157000Y-114569622D01*
X112903000Y-114569622D01*
X112665260Y-114448964D01*
X112559914Y-114473244D01*
X112034394Y-114764788D01*
X111660446Y-115235248D01*
X111495000Y-115813000D01*
X109485000Y-115813000D01*
X109319554Y-115235248D01*
X108945606Y-114764788D01*
X108420086Y-114473244D01*
X108314740Y-114448964D01*
X108077000Y-114569622D01*
X107823000Y-114569622D01*
X107585260Y-114448964D01*
X107479914Y-114473244D01*
X106954394Y-114764788D01*
X106580446Y-115235248D01*
X106415000Y-115813000D01*
X104417440Y-115813000D01*
X104417440Y-115290000D01*
X104349126Y-114946565D01*
X104154586Y-114655414D01*
X103863435Y-114460874D01*
X103520000Y-114392560D01*
X102220000Y-114392560D01*
X101876565Y-114460874D01*
X101585414Y-114655414D01*
X101390874Y-114946565D01*
X101322560Y-115290000D01*
X92851813Y-115290000D01*
X92546673Y-114833327D01*
X92038926Y-114494062D01*
X91440000Y-114374928D01*
X90841073Y-114494062D01*
X90333327Y-114833327D01*
X89994062Y-115341074D01*
X89905000Y-115788819D01*
X87895000Y-115788819D01*
X87895000Y-114913690D01*
X87798327Y-114680301D01*
X87619698Y-114501673D01*
X87386309Y-114405000D01*
X86645750Y-114405000D01*
X86487000Y-114563750D01*
X86233000Y-114563750D01*
X86074250Y-114405000D01*
X85333691Y-114405000D01*
X85100302Y-114501673D01*
X84921673Y-114680301D01*
X84825000Y-114913690D01*
X75057000Y-114913690D01*
X75057000Y-110630152D01*
X75716964Y-111071126D01*
X76339721Y-111195000D01*
X76760279Y-111195000D01*
X77383036Y-111071126D01*
X78089249Y-110599249D01*
X78561126Y-109893036D01*
X78635559Y-109518833D01*
X86464887Y-109518833D01*
X86751153Y-110209958D01*
X87328152Y-110810812D01*
X88091166Y-111145120D01*
X88423000Y-111032476D01*
X88423000Y-109187000D01*
X88677000Y-109187000D01*
X88677000Y-111032476D01*
X89008834Y-111145120D01*
X89771848Y-110810812D01*
X90348847Y-110209958D01*
X90635113Y-109518833D01*
X90522165Y-109187000D01*
X88677000Y-109187000D01*
X88423000Y-109187000D01*
X86577835Y-109187000D01*
X86464887Y-109518833D01*
X78635559Y-109518833D01*
X78726827Y-109060000D01*
X78635560Y-108601167D01*
X86464887Y-108601167D01*
X86577835Y-108933000D01*
X88423000Y-108933000D01*
X88423000Y-107087524D01*
X88677000Y-107087524D01*
X88677000Y-108933000D01*
X90522165Y-108933000D01*
X90635113Y-108601167D01*
X90348847Y-107910042D01*
X89771848Y-107309188D01*
X89008834Y-106974880D01*
X88677000Y-107087524D01*
X88423000Y-107087524D01*
X88091166Y-106974880D01*
X87328152Y-107309188D01*
X86751153Y-107910042D01*
X86464887Y-108601167D01*
X78635560Y-108601167D01*
X78631977Y-108583155D01*
X78644645Y-108570487D01*
X78932288Y-108378290D01*
X78995612Y-108283519D01*
X80859130Y-106420001D01*
X140183788Y-106420001D01*
X140465907Y-107838307D01*
X141269313Y-109040689D01*
X142471695Y-109844095D01*
X143531990Y-110055001D01*
X144248012Y-110055001D01*
X145308307Y-109844095D01*
X146510689Y-109040689D01*
X147314095Y-107838307D01*
X147532561Y-106740001D01*
X148758277Y-106740001D01*
X148943381Y-107670581D01*
X149470512Y-108459490D01*
X150259421Y-108986621D01*
X150955104Y-109125001D01*
X151424898Y-109125001D01*
X152120581Y-108986621D01*
X152909490Y-108459490D01*
X153436621Y-107670581D01*
X153621725Y-106740001D01*
X153838277Y-106740001D01*
X154023381Y-107670581D01*
X154550512Y-108459490D01*
X155339421Y-108986621D01*
X156035104Y-109125001D01*
X156504898Y-109125001D01*
X157200581Y-108986621D01*
X157989490Y-108459490D01*
X158516621Y-107670581D01*
X158701725Y-106740001D01*
X158918277Y-106740001D01*
X159103381Y-107670581D01*
X159630512Y-108459490D01*
X160419421Y-108986621D01*
X161115104Y-109125001D01*
X161584898Y-109125001D01*
X162280581Y-108986621D01*
X163069490Y-108459490D01*
X163596621Y-107670581D01*
X163682665Y-107238004D01*
X164097574Y-107238004D01*
X164428580Y-108037138D01*
X165077322Y-108704310D01*
X165931997Y-109072434D01*
X166303001Y-108962873D01*
X166303001Y-106867001D01*
X166557001Y-106867001D01*
X166557001Y-108962873D01*
X166928005Y-109072434D01*
X167782680Y-108704310D01*
X168431422Y-108037138D01*
X168762428Y-107238004D01*
X168652626Y-106867001D01*
X166557001Y-106867001D01*
X166303001Y-106867001D01*
X164207376Y-106867001D01*
X164097574Y-107238004D01*
X163682665Y-107238004D01*
X163781725Y-106740001D01*
X163682666Y-106241998D01*
X164097574Y-106241998D01*
X164207376Y-106613001D01*
X166303001Y-106613001D01*
X166303001Y-104517129D01*
X166557001Y-104517129D01*
X166557001Y-106613001D01*
X168652626Y-106613001D01*
X168709746Y-106420001D01*
X180183788Y-106420001D01*
X180465907Y-107838307D01*
X181269313Y-109040689D01*
X182471695Y-109844095D01*
X183531990Y-110055001D01*
X184248012Y-110055001D01*
X185308307Y-109844095D01*
X186510689Y-109040689D01*
X187314095Y-107838307D01*
X187596214Y-106420001D01*
X187314095Y-105001695D01*
X186510689Y-103799313D01*
X185308307Y-102995907D01*
X184248012Y-102785001D01*
X183531990Y-102785001D01*
X182471695Y-102995907D01*
X181269313Y-103799313D01*
X180465907Y-105001695D01*
X180183788Y-106420001D01*
X168709746Y-106420001D01*
X168762428Y-106241998D01*
X168431422Y-105442864D01*
X167782680Y-104775692D01*
X166928005Y-104407568D01*
X166557001Y-104517129D01*
X166303001Y-104517129D01*
X165931997Y-104407568D01*
X165077322Y-104775692D01*
X164428580Y-105442864D01*
X164097574Y-106241998D01*
X163682666Y-106241998D01*
X163596621Y-105809421D01*
X163069490Y-105020512D01*
X162280581Y-104493381D01*
X161584898Y-104355001D01*
X161115104Y-104355001D01*
X160419421Y-104493381D01*
X159630512Y-105020512D01*
X159103381Y-105809421D01*
X158918277Y-106740001D01*
X158701725Y-106740001D01*
X158516621Y-105809421D01*
X157989490Y-105020512D01*
X157200581Y-104493381D01*
X156504898Y-104355001D01*
X156035104Y-104355001D01*
X155339421Y-104493381D01*
X154550512Y-105020512D01*
X154023381Y-105809421D01*
X153838277Y-106740001D01*
X153621725Y-106740001D01*
X153436621Y-105809421D01*
X152909490Y-105020512D01*
X152120581Y-104493381D01*
X151950001Y-104459451D01*
X151950001Y-99562581D01*
X152368769Y-99282769D01*
X152730136Y-98741946D01*
X152857031Y-98104000D01*
X152730136Y-97466056D01*
X152546448Y-97191148D01*
X152516086Y-97117847D01*
X152056153Y-96657914D01*
X151904457Y-96595079D01*
X151767945Y-96503865D01*
X151606918Y-96471834D01*
X151455222Y-96409000D01*
X151291030Y-96409000D01*
X151130000Y-96376969D01*
X150968970Y-96409000D01*
X150804778Y-96409000D01*
X150653082Y-96471834D01*
X150492055Y-96503865D01*
X150355544Y-96595079D01*
X150203847Y-96657914D01*
X150087743Y-96774018D01*
X149951232Y-96865232D01*
X149860018Y-97001743D01*
X149743914Y-97117847D01*
X149681079Y-97269544D01*
X149589865Y-97406055D01*
X149557834Y-97567082D01*
X149495000Y-97718778D01*
X149495000Y-97882970D01*
X149462969Y-98044000D01*
X149495000Y-98205030D01*
X149495000Y-98369222D01*
X149557834Y-98520918D01*
X149589865Y-98681945D01*
X149681079Y-98818457D01*
X149743914Y-98970153D01*
X150203847Y-99430086D01*
X150277148Y-99460448D01*
X150430002Y-99562582D01*
X150430001Y-104459450D01*
X150259421Y-104493381D01*
X149470512Y-105020512D01*
X148943381Y-105809421D01*
X148758277Y-106740001D01*
X147532561Y-106740001D01*
X147596214Y-106420001D01*
X147314095Y-105001695D01*
X146510689Y-103799313D01*
X145308307Y-102995907D01*
X144248012Y-102785001D01*
X143531990Y-102785001D01*
X142471695Y-102995907D01*
X141269313Y-103799313D01*
X140465907Y-105001695D01*
X140183788Y-106420001D01*
X80859130Y-106420001D01*
X83532133Y-103747000D01*
X83587494Y-103747000D01*
X84096540Y-103536147D01*
X84486147Y-103146540D01*
X84697000Y-102637494D01*
X84697000Y-102086506D01*
X84486147Y-101577460D01*
X84096540Y-101187853D01*
X83587494Y-100977000D01*
X83036506Y-100977000D01*
X82527460Y-101187853D01*
X82137853Y-101577460D01*
X81927000Y-102086506D01*
X81927000Y-102141867D01*
X77519355Y-106549513D01*
X77231710Y-106741712D01*
X77168388Y-106836480D01*
X77026845Y-106978023D01*
X76760279Y-106925000D01*
X76339721Y-106925000D01*
X75716964Y-107048874D01*
X75057000Y-107489848D01*
X75057000Y-95482506D01*
X91579000Y-95482506D01*
X91579000Y-96033494D01*
X91789853Y-96542540D01*
X92179460Y-96932147D01*
X92688506Y-97143000D01*
X93239494Y-97143000D01*
X93748540Y-96932147D01*
X93787687Y-96893000D01*
X96204313Y-96893000D01*
X96243460Y-96932147D01*
X96752506Y-97143000D01*
X97303494Y-97143000D01*
X97812540Y-96932147D01*
X98202147Y-96542540D01*
X98413000Y-96033494D01*
X98413000Y-95482506D01*
X98202147Y-94973460D01*
X97812540Y-94583853D01*
X97303494Y-94373000D01*
X96752506Y-94373000D01*
X96243460Y-94583853D01*
X96204313Y-94623000D01*
X93787687Y-94623000D01*
X93748540Y-94583853D01*
X93239494Y-94373000D01*
X92688506Y-94373000D01*
X92179460Y-94583853D01*
X91789853Y-94973460D01*
X91579000Y-95482506D01*
X75057000Y-95482506D01*
X75057000Y-93059039D01*
X109098096Y-93059039D01*
X109258959Y-93447423D01*
X109634866Y-93862389D01*
X110140959Y-94101914D01*
X110363000Y-93980629D01*
X110363000Y-92837000D01*
X110617000Y-92837000D01*
X110617000Y-93980629D01*
X110839041Y-94101914D01*
X111345134Y-93862389D01*
X111721041Y-93447423D01*
X111881904Y-93059039D01*
X111759915Y-92837000D01*
X110617000Y-92837000D01*
X110363000Y-92837000D01*
X109220085Y-92837000D01*
X109098096Y-93059039D01*
X75057000Y-93059039D01*
X75057000Y-90630152D01*
X75716964Y-91071126D01*
X76339721Y-91195000D01*
X76760279Y-91195000D01*
X77383036Y-91071126D01*
X78089249Y-90599249D01*
X78561126Y-89893036D01*
X78635559Y-89518833D01*
X86464887Y-89518833D01*
X86751153Y-90209958D01*
X87328152Y-90810812D01*
X88091166Y-91145120D01*
X88423000Y-91032476D01*
X88423000Y-89187000D01*
X88677000Y-89187000D01*
X88677000Y-91032476D01*
X89008834Y-91145120D01*
X89771848Y-90810812D01*
X90348847Y-90209958D01*
X90635113Y-89518833D01*
X90522165Y-89187000D01*
X88677000Y-89187000D01*
X88423000Y-89187000D01*
X86577835Y-89187000D01*
X86464887Y-89518833D01*
X78635559Y-89518833D01*
X78726827Y-89060000D01*
X78635560Y-88601167D01*
X86464887Y-88601167D01*
X86577835Y-88933000D01*
X88423000Y-88933000D01*
X88423000Y-87087524D01*
X88677000Y-87087524D01*
X88677000Y-88933000D01*
X90522165Y-88933000D01*
X90635113Y-88601167D01*
X90348847Y-87910042D01*
X89771848Y-87309188D01*
X89008834Y-86974880D01*
X88677000Y-87087524D01*
X88423000Y-87087524D01*
X88091166Y-86974880D01*
X87328152Y-87309188D01*
X86751153Y-87910042D01*
X86464887Y-88601167D01*
X78635560Y-88601167D01*
X78561126Y-88226964D01*
X78089249Y-87520751D01*
X77383036Y-87048874D01*
X76760279Y-86925000D01*
X76339721Y-86925000D01*
X75716964Y-87048874D01*
X75057000Y-87489848D01*
X75057000Y-80496506D01*
X98691000Y-80496506D01*
X98691000Y-81047494D01*
X98901853Y-81556540D01*
X99291460Y-81946147D01*
X99316001Y-81956312D01*
X99316000Y-84667688D01*
X99291460Y-84677853D01*
X98901853Y-85067460D01*
X98691000Y-85576506D01*
X98691000Y-86127494D01*
X98901853Y-86636540D01*
X99291460Y-87026147D01*
X99800506Y-87237000D01*
X100351494Y-87237000D01*
X100860540Y-87026147D01*
X101250147Y-86636540D01*
X101461000Y-86127494D01*
X101461000Y-85576506D01*
X101250147Y-85067460D01*
X100860540Y-84677853D01*
X100836000Y-84667688D01*
X100836000Y-81956312D01*
X100860540Y-81946147D01*
X101250147Y-81556540D01*
X101461000Y-81047494D01*
X101461000Y-80496506D01*
X101250147Y-79987460D01*
X100860540Y-79597853D01*
X100351494Y-79387000D01*
X99800506Y-79387000D01*
X99291460Y-79597853D01*
X98901853Y-79987460D01*
X98691000Y-80496506D01*
X75057000Y-80496506D01*
X75057000Y-78740000D01*
X78814928Y-78740000D01*
X78934062Y-79338927D01*
X79273327Y-79846673D01*
X79781073Y-80185938D01*
X80228818Y-80275000D01*
X82331182Y-80275000D01*
X82778927Y-80185938D01*
X83286673Y-79846673D01*
X83625938Y-79338927D01*
X83745072Y-78740000D01*
X83625938Y-78141073D01*
X83286673Y-77633327D01*
X82778927Y-77294062D01*
X82331182Y-77205000D01*
X80228818Y-77205000D01*
X79781073Y-77294062D01*
X79273327Y-77633327D01*
X78934062Y-78141073D01*
X78814928Y-78740000D01*
X75057000Y-78740000D01*
X75057000Y-73010000D01*
X78832560Y-73010000D01*
X78832560Y-74310000D01*
X78900874Y-74653435D01*
X79095414Y-74944586D01*
X79386565Y-75139126D01*
X79730000Y-75207440D01*
X82830000Y-75207440D01*
X83173435Y-75139126D01*
X83464586Y-74944586D01*
X83659126Y-74653435D01*
X83727440Y-74310000D01*
X83727440Y-73010000D01*
X83659126Y-72666565D01*
X83464586Y-72375414D01*
X83173435Y-72180874D01*
X82830000Y-72112560D01*
X79730000Y-72112560D01*
X79386565Y-72180874D01*
X79095414Y-72375414D01*
X78900874Y-72666565D01*
X78832560Y-73010000D01*
X75057000Y-73010000D01*
X75057000Y-70590506D01*
X86499000Y-70590506D01*
X86499000Y-71141494D01*
X86709853Y-71650540D01*
X87099460Y-72040147D01*
X87608506Y-72251000D01*
X88159494Y-72251000D01*
X88668540Y-72040147D01*
X89058147Y-71650540D01*
X89068312Y-71626000D01*
X96699153Y-71626000D01*
X96774000Y-71640888D01*
X96848847Y-71626000D01*
X96848852Y-71626000D01*
X97070537Y-71581904D01*
X97321929Y-71413929D01*
X97364331Y-71350470D01*
X101406802Y-67308000D01*
X101431688Y-67308000D01*
X101441853Y-67332540D01*
X101831460Y-67722147D01*
X102340506Y-67933000D01*
X102891494Y-67933000D01*
X103400540Y-67722147D01*
X103790147Y-67332540D01*
X104001000Y-66823494D01*
X104001000Y-66272506D01*
X103790147Y-65763460D01*
X103400540Y-65373853D01*
X102891494Y-65163000D01*
X102340506Y-65163000D01*
X101831460Y-65373853D01*
X101441853Y-65763460D01*
X101431688Y-65788000D01*
X101166846Y-65788000D01*
X101091999Y-65773112D01*
X101017152Y-65788000D01*
X101017148Y-65788000D01*
X100795463Y-65832096D01*
X100544071Y-66000071D01*
X100501671Y-66063527D01*
X96459199Y-70106000D01*
X89068312Y-70106000D01*
X89058147Y-70081460D01*
X88668540Y-69691853D01*
X88159494Y-69481000D01*
X87608506Y-69481000D01*
X87099460Y-69691853D01*
X86709853Y-70081460D01*
X86499000Y-70590506D01*
X75057000Y-70590506D01*
X75057000Y-64086736D01*
X75305000Y-64086736D01*
X75305000Y-65453264D01*
X75827947Y-66715771D01*
X76794229Y-67682053D01*
X78056736Y-68205000D01*
X79423264Y-68205000D01*
X80685771Y-67682053D01*
X81652053Y-66715771D01*
X82175000Y-65453264D01*
X82175000Y-64770000D01*
X109026887Y-64770000D01*
X109138260Y-65329909D01*
X109455423Y-65804577D01*
X109807758Y-66040000D01*
X109455423Y-66275423D01*
X109138260Y-66750091D01*
X109026887Y-67310000D01*
X109138260Y-67869909D01*
X109455423Y-68344577D01*
X109807758Y-68580000D01*
X109455423Y-68815423D01*
X109138260Y-69290091D01*
X109026887Y-69850000D01*
X109138260Y-70409909D01*
X109455423Y-70884577D01*
X109807758Y-71120000D01*
X109455423Y-71355423D01*
X109138260Y-71830091D01*
X109026887Y-72390000D01*
X109138260Y-72949909D01*
X109455423Y-73424577D01*
X109807758Y-73660000D01*
X109455423Y-73895423D01*
X109138260Y-74370091D01*
X109026887Y-74930000D01*
X109138260Y-75489909D01*
X109455423Y-75964577D01*
X109807758Y-76200000D01*
X109455423Y-76435423D01*
X109138260Y-76910091D01*
X109026887Y-77470000D01*
X109138260Y-78029909D01*
X109455423Y-78504577D01*
X109807758Y-78740000D01*
X109455423Y-78975423D01*
X109138260Y-79450091D01*
X109026887Y-80010000D01*
X109138260Y-80569909D01*
X109455423Y-81044577D01*
X109807758Y-81280000D01*
X109455423Y-81515423D01*
X109138260Y-81990091D01*
X109026887Y-82550000D01*
X109138260Y-83109909D01*
X109455423Y-83584577D01*
X109807758Y-83820000D01*
X109455423Y-84055423D01*
X109138260Y-84530091D01*
X109026887Y-85090000D01*
X109138260Y-85649909D01*
X109455423Y-86124577D01*
X109807758Y-86360000D01*
X109455423Y-86595423D01*
X109138260Y-87070091D01*
X109026887Y-87630000D01*
X109138260Y-88189909D01*
X109455423Y-88664577D01*
X109807758Y-88900000D01*
X109455423Y-89135423D01*
X109138260Y-89610091D01*
X109026887Y-90170000D01*
X109138260Y-90729909D01*
X109455423Y-91204577D01*
X109839108Y-91460947D01*
X109634866Y-91557611D01*
X109258959Y-91972577D01*
X109098096Y-92360961D01*
X109220085Y-92583000D01*
X110363000Y-92583000D01*
X110363000Y-92563000D01*
X110617000Y-92563000D01*
X110617000Y-92583000D01*
X111759915Y-92583000D01*
X111881904Y-92360961D01*
X111721041Y-91972577D01*
X111345134Y-91557611D01*
X111140892Y-91460947D01*
X111524577Y-91204577D01*
X111841740Y-90729909D01*
X111953113Y-90170000D01*
X111841740Y-89610091D01*
X111524577Y-89135423D01*
X111172242Y-88900000D01*
X111524577Y-88664577D01*
X111841740Y-88189909D01*
X111953113Y-87630000D01*
X111841740Y-87070091D01*
X111524577Y-86595423D01*
X111172242Y-86360000D01*
X111524577Y-86124577D01*
X111841740Y-85649909D01*
X111953113Y-85090000D01*
X111841740Y-84530091D01*
X111524577Y-84055423D01*
X111172242Y-83820000D01*
X111524577Y-83584577D01*
X111841740Y-83109909D01*
X111953113Y-82550000D01*
X111948838Y-82528506D01*
X113423000Y-82528506D01*
X113423000Y-83079494D01*
X113633853Y-83588540D01*
X114023460Y-83978147D01*
X114058580Y-83992694D01*
X114092097Y-84161197D01*
X114183378Y-84297808D01*
X114260072Y-84412589D01*
X114323527Y-84454988D01*
X114556000Y-84687462D01*
X114556001Y-90857148D01*
X114541112Y-90932000D01*
X114556001Y-91006852D01*
X114600097Y-91228537D01*
X114768072Y-91479929D01*
X114831528Y-91522329D01*
X116481164Y-93171967D01*
X116471000Y-93196506D01*
X116471000Y-93747494D01*
X116681853Y-94256540D01*
X117071460Y-94646147D01*
X117580506Y-94857000D01*
X118131494Y-94857000D01*
X118640540Y-94646147D01*
X119030147Y-94256540D01*
X119241000Y-93747494D01*
X119241000Y-93196506D01*
X119192328Y-93079000D01*
X119401494Y-93079000D01*
X119910540Y-92868147D01*
X120300147Y-92478540D01*
X120511000Y-91969494D01*
X120511000Y-91418506D01*
X120300147Y-90909460D01*
X120028983Y-90638296D01*
X120164540Y-90582147D01*
X120554147Y-90192540D01*
X120765000Y-89683494D01*
X120765000Y-89132506D01*
X120554147Y-88623460D01*
X120164540Y-88233853D01*
X120140000Y-88223688D01*
X120140000Y-81340801D01*
X122889966Y-78590835D01*
X122914506Y-78601000D01*
X123465494Y-78601000D01*
X123974540Y-78390147D01*
X124364147Y-78000540D01*
X124575000Y-77491494D01*
X124575000Y-76940506D01*
X124364147Y-76431460D01*
X123974540Y-76041853D01*
X123465494Y-75831000D01*
X122914506Y-75831000D01*
X122405460Y-76041853D01*
X122015853Y-76431460D01*
X121805000Y-76940506D01*
X121805000Y-77491494D01*
X121815165Y-77516034D01*
X118895530Y-80435669D01*
X118832071Y-80478071D01*
X118664096Y-80729464D01*
X118620000Y-80951149D01*
X118620000Y-80951153D01*
X118605112Y-81026000D01*
X118620000Y-81100847D01*
X118620001Y-88223688D01*
X118595460Y-88233853D01*
X118205853Y-88623460D01*
X117995000Y-89132506D01*
X117995000Y-89488199D01*
X117600000Y-89093199D01*
X117600000Y-86782312D01*
X117624540Y-86772147D01*
X118014147Y-86382540D01*
X118225000Y-85873494D01*
X118225000Y-85322506D01*
X118014147Y-84813460D01*
X117624540Y-84423853D01*
X117115494Y-84213000D01*
X116564506Y-84213000D01*
X116082972Y-84412457D01*
X116090888Y-84372659D01*
X116076000Y-84297812D01*
X116076000Y-84297808D01*
X116031904Y-84076123D01*
X115990102Y-84013562D01*
X115906329Y-83888186D01*
X115906327Y-83888184D01*
X115863929Y-83824731D01*
X115800475Y-83782333D01*
X115794415Y-83776272D01*
X115982147Y-83588540D01*
X116193000Y-83079494D01*
X116193000Y-82528506D01*
X115982147Y-82019460D01*
X115592540Y-81629853D01*
X115083494Y-81419000D01*
X114532506Y-81419000D01*
X114023460Y-81629853D01*
X113633853Y-82019460D01*
X113423000Y-82528506D01*
X111948838Y-82528506D01*
X111841740Y-81990091D01*
X111524577Y-81515423D01*
X111172242Y-81280000D01*
X111524577Y-81044577D01*
X111841740Y-80569909D01*
X111953113Y-80010000D01*
X111841740Y-79450091D01*
X111524577Y-78975423D01*
X111172242Y-78740000D01*
X111524577Y-78504577D01*
X111841740Y-78029909D01*
X111953113Y-77470000D01*
X111841740Y-76910091D01*
X111524577Y-76435423D01*
X111172242Y-76200000D01*
X111524577Y-75964577D01*
X111841740Y-75489909D01*
X111953113Y-74930000D01*
X111841740Y-74370091D01*
X111524577Y-73895423D01*
X111172242Y-73660000D01*
X111524577Y-73424577D01*
X111841740Y-72949909D01*
X111953113Y-72390000D01*
X111841740Y-71830091D01*
X111524577Y-71355423D01*
X111172242Y-71120000D01*
X111524577Y-70884577D01*
X111841740Y-70409909D01*
X111953113Y-69850000D01*
X111841740Y-69290091D01*
X111524577Y-68815423D01*
X111172242Y-68580000D01*
X111524577Y-68344577D01*
X111841740Y-67869909D01*
X111953113Y-67310000D01*
X111841740Y-66750091D01*
X111524577Y-66275423D01*
X111172242Y-66040000D01*
X111524577Y-65804577D01*
X111841740Y-65329909D01*
X111953113Y-64770000D01*
X111841740Y-64210091D01*
X111524577Y-63735423D01*
X111403894Y-63654785D01*
X111537765Y-63628157D01*
X111747809Y-63487809D01*
X111888157Y-63277765D01*
X111937440Y-63030000D01*
X111937440Y-62230000D01*
X129346887Y-62230000D01*
X129458260Y-62789909D01*
X129775423Y-63264577D01*
X130127758Y-63500000D01*
X129775423Y-63735423D01*
X129458260Y-64210091D01*
X129346887Y-64770000D01*
X129458260Y-65329909D01*
X129775423Y-65804577D01*
X130127758Y-66040000D01*
X129775423Y-66275423D01*
X129458260Y-66750091D01*
X129346887Y-67310000D01*
X129458260Y-67869909D01*
X129775423Y-68344577D01*
X130127758Y-68580000D01*
X129775423Y-68815423D01*
X129458260Y-69290091D01*
X129346887Y-69850000D01*
X129458260Y-70409909D01*
X129775423Y-70884577D01*
X130127758Y-71120000D01*
X129775423Y-71355423D01*
X129458260Y-71830091D01*
X129346887Y-72390000D01*
X129458260Y-72949909D01*
X129775423Y-73424577D01*
X130127758Y-73660000D01*
X129775423Y-73895423D01*
X129458260Y-74370091D01*
X129346887Y-74930000D01*
X129458260Y-75489909D01*
X129775423Y-75964577D01*
X130127758Y-76200000D01*
X129775423Y-76435423D01*
X129458260Y-76910091D01*
X129346887Y-77470000D01*
X129458260Y-78029909D01*
X129775423Y-78504577D01*
X130127758Y-78740000D01*
X129775423Y-78975423D01*
X129458260Y-79450091D01*
X129346887Y-80010000D01*
X129458260Y-80569909D01*
X129775423Y-81044577D01*
X130127758Y-81280000D01*
X129775423Y-81515423D01*
X129458260Y-81990091D01*
X129346887Y-82550000D01*
X129458260Y-83109909D01*
X129775423Y-83584577D01*
X130127758Y-83820000D01*
X129775423Y-84055423D01*
X129458260Y-84530091D01*
X129346887Y-85090000D01*
X129458260Y-85649909D01*
X129775423Y-86124577D01*
X130127758Y-86360000D01*
X129775423Y-86595423D01*
X129458260Y-87070091D01*
X129346887Y-87630000D01*
X129458260Y-88189909D01*
X129775423Y-88664577D01*
X130127758Y-88900000D01*
X129775423Y-89135423D01*
X129458260Y-89610091D01*
X129346887Y-90170000D01*
X129458260Y-90729909D01*
X129775423Y-91204577D01*
X130127758Y-91440000D01*
X129775423Y-91675423D01*
X129458260Y-92150091D01*
X129346887Y-92710000D01*
X129458260Y-93269909D01*
X129775423Y-93744577D01*
X130250091Y-94061740D01*
X130668667Y-94145000D01*
X130951333Y-94145000D01*
X131369909Y-94061740D01*
X131844577Y-93744577D01*
X132161740Y-93269909D01*
X132273113Y-92710000D01*
X132161740Y-92150091D01*
X131844577Y-91675423D01*
X131492242Y-91440000D01*
X131844577Y-91204577D01*
X132161740Y-90729909D01*
X132273113Y-90170000D01*
X132161740Y-89610091D01*
X131844577Y-89135423D01*
X131492242Y-88900000D01*
X131844577Y-88664577D01*
X132161740Y-88189909D01*
X132273113Y-87630000D01*
X132161740Y-87070091D01*
X131844577Y-86595423D01*
X131492242Y-86360000D01*
X131844577Y-86124577D01*
X132161740Y-85649909D01*
X132273113Y-85090000D01*
X132161740Y-84530091D01*
X131844577Y-84055423D01*
X131492242Y-83820000D01*
X131844577Y-83584577D01*
X132161740Y-83109909D01*
X132273113Y-82550000D01*
X132161740Y-81990091D01*
X131844577Y-81515423D01*
X131492242Y-81280000D01*
X131844577Y-81044577D01*
X132161740Y-80569909D01*
X132273113Y-80010000D01*
X132161740Y-79450091D01*
X131844577Y-78975423D01*
X131492242Y-78740000D01*
X131844577Y-78504577D01*
X132161740Y-78029909D01*
X132273113Y-77470000D01*
X132161740Y-76910091D01*
X131844577Y-76435423D01*
X131492242Y-76200000D01*
X131844577Y-75964577D01*
X132161740Y-75489909D01*
X132273113Y-74930000D01*
X132161740Y-74370091D01*
X131844577Y-73895423D01*
X131840212Y-73892506D01*
X137807000Y-73892506D01*
X137807000Y-74443494D01*
X138017853Y-74952540D01*
X138407460Y-75342147D01*
X138916506Y-75553000D01*
X139467494Y-75553000D01*
X139492034Y-75542835D01*
X142897165Y-78947966D01*
X142887000Y-78972506D01*
X142887000Y-79523494D01*
X143097853Y-80032540D01*
X143487460Y-80422147D01*
X143996506Y-80633000D01*
X144547494Y-80633000D01*
X145056540Y-80422147D01*
X145446147Y-80032540D01*
X145657000Y-79523494D01*
X145657000Y-78972506D01*
X145446147Y-78463460D01*
X145056540Y-78073853D01*
X144547494Y-77863000D01*
X143996506Y-77863000D01*
X143971966Y-77873165D01*
X140566835Y-74468034D01*
X140577000Y-74443494D01*
X140577000Y-73892506D01*
X140366147Y-73383460D01*
X139976540Y-72993853D01*
X139467494Y-72783000D01*
X138916506Y-72783000D01*
X138407460Y-72993853D01*
X138017853Y-73383460D01*
X137807000Y-73892506D01*
X131840212Y-73892506D01*
X131492242Y-73660000D01*
X131844577Y-73424577D01*
X132161740Y-72949909D01*
X132273113Y-72390000D01*
X132161740Y-71830091D01*
X131844577Y-71355423D01*
X131492242Y-71120000D01*
X131844577Y-70884577D01*
X132161740Y-70409909D01*
X132273113Y-69850000D01*
X132161740Y-69290091D01*
X131844577Y-68815423D01*
X131492242Y-68580000D01*
X131844577Y-68344577D01*
X132161740Y-67869909D01*
X132273113Y-67310000D01*
X132161740Y-66750091D01*
X131941181Y-66420001D01*
X140183788Y-66420001D01*
X140465907Y-67838307D01*
X141269313Y-69040689D01*
X142471695Y-69844095D01*
X143531990Y-70055001D01*
X144248012Y-70055001D01*
X145308307Y-69844095D01*
X146510689Y-69040689D01*
X147314095Y-67838307D01*
X147596214Y-66420001D01*
X147314095Y-65001695D01*
X146510689Y-63799313D01*
X146152534Y-63560001D01*
X149726888Y-63560001D01*
X149838261Y-64119910D01*
X150155424Y-64594578D01*
X150507759Y-64830001D01*
X150155424Y-65065424D01*
X149838261Y-65540092D01*
X149726888Y-66100001D01*
X149838261Y-66659910D01*
X150155424Y-67134578D01*
X150630092Y-67451741D01*
X151048668Y-67535001D01*
X151331334Y-67535001D01*
X151749910Y-67451741D01*
X152224578Y-67134578D01*
X152460001Y-66782243D01*
X152695424Y-67134578D01*
X153170092Y-67451741D01*
X153588668Y-67535001D01*
X153871334Y-67535001D01*
X154289910Y-67451741D01*
X154764578Y-67134578D01*
X155000001Y-66782243D01*
X155235424Y-67134578D01*
X155710092Y-67451741D01*
X156128668Y-67535001D01*
X156411334Y-67535001D01*
X156829910Y-67451741D01*
X157304578Y-67134578D01*
X157540001Y-66782243D01*
X157775424Y-67134578D01*
X158250092Y-67451741D01*
X158668668Y-67535001D01*
X158951334Y-67535001D01*
X159369910Y-67451741D01*
X159844578Y-67134578D01*
X160161741Y-66659910D01*
X160209461Y-66420001D01*
X180183788Y-66420001D01*
X180465907Y-67838307D01*
X181269313Y-69040689D01*
X182471695Y-69844095D01*
X183531990Y-70055001D01*
X184248012Y-70055001D01*
X185308307Y-69844095D01*
X186510689Y-69040689D01*
X187314095Y-67838307D01*
X187596214Y-66420001D01*
X187314095Y-65001695D01*
X186510689Y-63799313D01*
X185308307Y-62995907D01*
X184248012Y-62785001D01*
X183531990Y-62785001D01*
X182471695Y-62995907D01*
X181269313Y-63799313D01*
X180465907Y-65001695D01*
X180183788Y-66420001D01*
X160209461Y-66420001D01*
X160273114Y-66100001D01*
X160161741Y-65540092D01*
X159844578Y-65065424D01*
X159460893Y-64809054D01*
X159665135Y-64712390D01*
X160041042Y-64297424D01*
X160201905Y-63909040D01*
X160079916Y-63687001D01*
X158937001Y-63687001D01*
X158937001Y-63707001D01*
X158683001Y-63707001D01*
X158683001Y-63687001D01*
X158663001Y-63687001D01*
X158663001Y-63433001D01*
X158683001Y-63433001D01*
X158683001Y-62289372D01*
X158937001Y-62289372D01*
X158937001Y-63433001D01*
X160079916Y-63433001D01*
X160201905Y-63210962D01*
X160041042Y-62822578D01*
X159665135Y-62407612D01*
X159159042Y-62168087D01*
X158937001Y-62289372D01*
X158683001Y-62289372D01*
X158460960Y-62168087D01*
X157954867Y-62407612D01*
X157578960Y-62822578D01*
X157549942Y-62892638D01*
X157304578Y-62525424D01*
X156829910Y-62208261D01*
X156411334Y-62125001D01*
X156128668Y-62125001D01*
X155710092Y-62208261D01*
X155235424Y-62525424D01*
X155000001Y-62877759D01*
X154764578Y-62525424D01*
X154289910Y-62208261D01*
X153871334Y-62125001D01*
X153588668Y-62125001D01*
X153170092Y-62208261D01*
X152695424Y-62525424D01*
X152460001Y-62877759D01*
X152224578Y-62525424D01*
X151749910Y-62208261D01*
X151331334Y-62125001D01*
X151048668Y-62125001D01*
X150630092Y-62208261D01*
X150155424Y-62525424D01*
X149838261Y-63000092D01*
X149726888Y-63560001D01*
X146152534Y-63560001D01*
X145308307Y-62995907D01*
X144248012Y-62785001D01*
X143531990Y-62785001D01*
X142471695Y-62995907D01*
X141269313Y-63799313D01*
X140465907Y-65001695D01*
X140183788Y-66420001D01*
X131941181Y-66420001D01*
X131844577Y-66275423D01*
X131492242Y-66040000D01*
X131844577Y-65804577D01*
X132161740Y-65329909D01*
X132273113Y-64770000D01*
X132161740Y-64210091D01*
X131844577Y-63735423D01*
X131492242Y-63500000D01*
X131844577Y-63264577D01*
X132161740Y-62789909D01*
X132273113Y-62230000D01*
X132161740Y-61670091D01*
X131844577Y-61195423D01*
X131369909Y-60878260D01*
X130951333Y-60795000D01*
X130668667Y-60795000D01*
X130250091Y-60878260D01*
X129775423Y-61195423D01*
X129458260Y-61670091D01*
X129346887Y-62230000D01*
X111937440Y-62230000D01*
X111937440Y-61430000D01*
X111888157Y-61182235D01*
X111747809Y-60972191D01*
X111537765Y-60831843D01*
X111290000Y-60782560D01*
X109690000Y-60782560D01*
X109442235Y-60831843D01*
X109232191Y-60972191D01*
X109091843Y-61182235D01*
X109042560Y-61430000D01*
X109042560Y-63030000D01*
X109091843Y-63277765D01*
X109232191Y-63487809D01*
X109442235Y-63628157D01*
X109576106Y-63654785D01*
X109455423Y-63735423D01*
X109138260Y-64210091D01*
X109026887Y-64770000D01*
X82175000Y-64770000D01*
X82175000Y-64086736D01*
X81652053Y-62824229D01*
X80685771Y-61857947D01*
X79423264Y-61335000D01*
X78056736Y-61335000D01*
X76794229Y-61857947D01*
X75827947Y-62824229D01*
X75305000Y-64086736D01*
X75057000Y-64086736D01*
X75057000Y-59817000D01*
X189103000Y-59817000D01*
X189103000Y-123063000D01*
G04 #@! TD*
M02*
