G04 #@! TF.GenerationSoftware,KiCad,Pcbnew,5.0.2+dfsg1-1*
G04 #@! TF.CreationDate,2019-02-11T07:24:08+11:00*
G04 #@! TF.ProjectId,swinggate,7377696e-6767-4617-9465-2e6b69636164,rev?*
G04 #@! TF.SameCoordinates,Original*
G04 #@! TF.FileFunction,Legend,Top*
G04 #@! TF.FilePolarity,Positive*
%FSLAX46Y46*%
G04 Gerber Fmt 4.6, Leading zero omitted, Abs format (unit mm)*
G04 Created by KiCad (PCBNEW 5.0.2+dfsg1-1) date Mon 11 Feb 2019 07:24:08 AEDT*
%MOMM*%
%LPD*%
G01*
G04 APERTURE LIST*
%ADD10C,0.300000*%
%ADD11C,0.120000*%
%ADD12C,0.150000*%
G04 APERTURE END LIST*
D10*
X108133142Y-106572857D02*
X107633142Y-106572857D01*
X107633142Y-107358571D02*
X107633142Y-105858571D01*
X108347428Y-105858571D01*
X108918857Y-106572857D02*
X109418857Y-106572857D01*
X109633142Y-107358571D02*
X108918857Y-107358571D01*
X108918857Y-105858571D01*
X109633142Y-105858571D01*
X110776000Y-106572857D02*
X110990285Y-106644285D01*
X111061714Y-106715714D01*
X111133142Y-106858571D01*
X111133142Y-107072857D01*
X111061714Y-107215714D01*
X110990285Y-107287142D01*
X110847428Y-107358571D01*
X110276000Y-107358571D01*
X110276000Y-105858571D01*
X110776000Y-105858571D01*
X110918857Y-105930000D01*
X110990285Y-106001428D01*
X111061714Y-106144285D01*
X111061714Y-106287142D01*
X110990285Y-106430000D01*
X110918857Y-106501428D01*
X110776000Y-106572857D01*
X110276000Y-106572857D01*
X112847428Y-106001428D02*
X112918857Y-105930000D01*
X113061714Y-105858571D01*
X113418857Y-105858571D01*
X113561714Y-105930000D01*
X113633142Y-106001428D01*
X113704571Y-106144285D01*
X113704571Y-106287142D01*
X113633142Y-106501428D01*
X112776000Y-107358571D01*
X113704571Y-107358571D01*
X114633142Y-105858571D02*
X114776000Y-105858571D01*
X114918857Y-105930000D01*
X114990285Y-106001428D01*
X115061714Y-106144285D01*
X115133142Y-106430000D01*
X115133142Y-106787142D01*
X115061714Y-107072857D01*
X114990285Y-107215714D01*
X114918857Y-107287142D01*
X114776000Y-107358571D01*
X114633142Y-107358571D01*
X114490285Y-107287142D01*
X114418857Y-107215714D01*
X114347428Y-107072857D01*
X114276000Y-106787142D01*
X114276000Y-106430000D01*
X114347428Y-106144285D01*
X114418857Y-106001428D01*
X114490285Y-105930000D01*
X114633142Y-105858571D01*
X116561714Y-107358571D02*
X115704571Y-107358571D01*
X116133142Y-107358571D02*
X116133142Y-105858571D01*
X115990285Y-106072857D01*
X115847428Y-106215714D01*
X115704571Y-106287142D01*
X117276000Y-107358571D02*
X117561714Y-107358571D01*
X117704571Y-107287142D01*
X117776000Y-107215714D01*
X117918857Y-107001428D01*
X117990285Y-106715714D01*
X117990285Y-106144285D01*
X117918857Y-106001428D01*
X117847428Y-105930000D01*
X117704571Y-105858571D01*
X117418857Y-105858571D01*
X117276000Y-105930000D01*
X117204571Y-106001428D01*
X117133142Y-106144285D01*
X117133142Y-106501428D01*
X117204571Y-106644285D01*
X117276000Y-106715714D01*
X117418857Y-106787142D01*
X117704571Y-106787142D01*
X117847428Y-106715714D01*
X117918857Y-106644285D01*
X117990285Y-106501428D01*
X100493428Y-103826571D02*
X101350571Y-103826571D01*
X100922000Y-105326571D02*
X100922000Y-103826571D01*
X101779142Y-104898000D02*
X102493428Y-104898000D01*
X101636285Y-105326571D02*
X102136285Y-103826571D01*
X102636285Y-105326571D01*
X103136285Y-103826571D02*
X103136285Y-105040857D01*
X103207714Y-105183714D01*
X103279142Y-105255142D01*
X103422000Y-105326571D01*
X103707714Y-105326571D01*
X103850571Y-105255142D01*
X103922000Y-105183714D01*
X103993428Y-105040857D01*
X103993428Y-103826571D01*
X105850571Y-105326571D02*
X105850571Y-103826571D01*
X106207714Y-103826571D01*
X106422000Y-103898000D01*
X106564857Y-104040857D01*
X106636285Y-104183714D01*
X106707714Y-104469428D01*
X106707714Y-104683714D01*
X106636285Y-104969428D01*
X106564857Y-105112285D01*
X106422000Y-105255142D01*
X106207714Y-105326571D01*
X105850571Y-105326571D01*
X107350571Y-104540857D02*
X107850571Y-104540857D01*
X108064857Y-105326571D02*
X107350571Y-105326571D01*
X107350571Y-103826571D01*
X108064857Y-103826571D01*
X109422000Y-105326571D02*
X108707714Y-105326571D01*
X108707714Y-103826571D01*
X109707714Y-103826571D02*
X110564857Y-103826571D01*
X110136285Y-105326571D02*
X110136285Y-103826571D01*
X110993428Y-104898000D02*
X111707714Y-104898000D01*
X110850571Y-105326571D02*
X111350571Y-103826571D01*
X111850571Y-105326571D01*
X166263714Y-114140142D02*
X166478000Y-114211571D01*
X166835142Y-114211571D01*
X166978000Y-114140142D01*
X167049428Y-114068714D01*
X167120857Y-113925857D01*
X167120857Y-113783000D01*
X167049428Y-113640142D01*
X166978000Y-113568714D01*
X166835142Y-113497285D01*
X166549428Y-113425857D01*
X166406571Y-113354428D01*
X166335142Y-113283000D01*
X166263714Y-113140142D01*
X166263714Y-112997285D01*
X166335142Y-112854428D01*
X166406571Y-112783000D01*
X166549428Y-112711571D01*
X166906571Y-112711571D01*
X167120857Y-112783000D01*
X167620857Y-112711571D02*
X167978000Y-114211571D01*
X168263714Y-113140142D01*
X168549428Y-114211571D01*
X168906571Y-112711571D01*
X169478000Y-114211571D02*
X169478000Y-112711571D01*
X170192285Y-114211571D02*
X170192285Y-112711571D01*
X171049428Y-114211571D01*
X171049428Y-112711571D01*
X172549428Y-112783000D02*
X172406571Y-112711571D01*
X172192285Y-112711571D01*
X171978000Y-112783000D01*
X171835142Y-112925857D01*
X171763714Y-113068714D01*
X171692285Y-113354428D01*
X171692285Y-113568714D01*
X171763714Y-113854428D01*
X171835142Y-113997285D01*
X171978000Y-114140142D01*
X172192285Y-114211571D01*
X172335142Y-114211571D01*
X172549428Y-114140142D01*
X172620857Y-114068714D01*
X172620857Y-113568714D01*
X172335142Y-113568714D01*
X175192285Y-112783000D02*
X175049428Y-112711571D01*
X174835142Y-112711571D01*
X174620857Y-112783000D01*
X174478000Y-112925857D01*
X174406571Y-113068714D01*
X174335142Y-113354428D01*
X174335142Y-113568714D01*
X174406571Y-113854428D01*
X174478000Y-113997285D01*
X174620857Y-114140142D01*
X174835142Y-114211571D01*
X174978000Y-114211571D01*
X175192285Y-114140142D01*
X175263714Y-114068714D01*
X175263714Y-113568714D01*
X174978000Y-113568714D01*
X175835142Y-113783000D02*
X176549428Y-113783000D01*
X175692285Y-114211571D02*
X176192285Y-112711571D01*
X176692285Y-114211571D01*
X176978000Y-112711571D02*
X177835142Y-112711571D01*
X177406571Y-114211571D02*
X177406571Y-112711571D01*
X178335142Y-113425857D02*
X178835142Y-113425857D01*
X179049428Y-114211571D02*
X178335142Y-114211571D01*
X178335142Y-112711571D01*
X179049428Y-112711571D01*
X167370857Y-116618714D02*
X167299428Y-116690142D01*
X167085142Y-116761571D01*
X166942285Y-116761571D01*
X166728000Y-116690142D01*
X166585142Y-116547285D01*
X166513714Y-116404428D01*
X166442285Y-116118714D01*
X166442285Y-115904428D01*
X166513714Y-115618714D01*
X166585142Y-115475857D01*
X166728000Y-115333000D01*
X166942285Y-115261571D01*
X167085142Y-115261571D01*
X167299428Y-115333000D01*
X167370857Y-115404428D01*
X168299428Y-115261571D02*
X168585142Y-115261571D01*
X168728000Y-115333000D01*
X168870857Y-115475857D01*
X168942285Y-115761571D01*
X168942285Y-116261571D01*
X168870857Y-116547285D01*
X168728000Y-116690142D01*
X168585142Y-116761571D01*
X168299428Y-116761571D01*
X168156571Y-116690142D01*
X168013714Y-116547285D01*
X167942285Y-116261571D01*
X167942285Y-115761571D01*
X168013714Y-115475857D01*
X168156571Y-115333000D01*
X168299428Y-115261571D01*
X169585142Y-116761571D02*
X169585142Y-115261571D01*
X170442285Y-116761571D01*
X170442285Y-115261571D01*
X170942285Y-115261571D02*
X171799428Y-115261571D01*
X171370857Y-116761571D02*
X171370857Y-115261571D01*
X173156571Y-116761571D02*
X172656571Y-116047285D01*
X172299428Y-116761571D02*
X172299428Y-115261571D01*
X172870857Y-115261571D01*
X173013714Y-115333000D01*
X173085142Y-115404428D01*
X173156571Y-115547285D01*
X173156571Y-115761571D01*
X173085142Y-115904428D01*
X173013714Y-115975857D01*
X172870857Y-116047285D01*
X172299428Y-116047285D01*
X174085142Y-115261571D02*
X174370857Y-115261571D01*
X174513714Y-115333000D01*
X174656571Y-115475857D01*
X174728000Y-115761571D01*
X174728000Y-116261571D01*
X174656571Y-116547285D01*
X174513714Y-116690142D01*
X174370857Y-116761571D01*
X174085142Y-116761571D01*
X173942285Y-116690142D01*
X173799428Y-116547285D01*
X173728000Y-116261571D01*
X173728000Y-115761571D01*
X173799428Y-115475857D01*
X173942285Y-115333000D01*
X174085142Y-115261571D01*
X176085142Y-116761571D02*
X175370857Y-116761571D01*
X175370857Y-115261571D01*
X177299428Y-116761571D02*
X176585142Y-116761571D01*
X176585142Y-115261571D01*
X177799428Y-115975857D02*
X178299428Y-115975857D01*
X178513714Y-116761571D02*
X177799428Y-116761571D01*
X177799428Y-115261571D01*
X178513714Y-115261571D01*
X180013714Y-116761571D02*
X179513714Y-116047285D01*
X179156571Y-116761571D02*
X179156571Y-115261571D01*
X179728000Y-115261571D01*
X179870857Y-115333000D01*
X179942285Y-115404428D01*
X180013714Y-115547285D01*
X180013714Y-115761571D01*
X179942285Y-115904428D01*
X179870857Y-115975857D01*
X179728000Y-116047285D01*
X179156571Y-116047285D01*
X115923714Y-64432571D02*
X115923714Y-62932571D01*
X116423714Y-64004000D01*
X116923714Y-62932571D01*
X116923714Y-64432571D01*
X117852285Y-64432571D02*
X117709428Y-64361142D01*
X117638000Y-64289714D01*
X117566571Y-64146857D01*
X117566571Y-63718285D01*
X117638000Y-63575428D01*
X117709428Y-63504000D01*
X117852285Y-63432571D01*
X118066571Y-63432571D01*
X118209428Y-63504000D01*
X118280857Y-63575428D01*
X118352285Y-63718285D01*
X118352285Y-64146857D01*
X118280857Y-64289714D01*
X118209428Y-64361142D01*
X118066571Y-64432571D01*
X117852285Y-64432571D01*
X118780857Y-63432571D02*
X119352285Y-63432571D01*
X118995142Y-62932571D02*
X118995142Y-64218285D01*
X119066571Y-64361142D01*
X119209428Y-64432571D01*
X119352285Y-64432571D01*
X120423714Y-64361142D02*
X120280857Y-64432571D01*
X119995142Y-64432571D01*
X119852285Y-64361142D01*
X119780857Y-64218285D01*
X119780857Y-63646857D01*
X119852285Y-63504000D01*
X119995142Y-63432571D01*
X120280857Y-63432571D01*
X120423714Y-63504000D01*
X120495142Y-63646857D01*
X120495142Y-63789714D01*
X119780857Y-63932571D01*
X121138000Y-64432571D02*
X121138000Y-63432571D01*
X121138000Y-62932571D02*
X121066571Y-63004000D01*
X121138000Y-63075428D01*
X121209428Y-63004000D01*
X121138000Y-62932571D01*
X121138000Y-63075428D01*
X121852285Y-63432571D02*
X121852285Y-64432571D01*
X121852285Y-63575428D02*
X121923714Y-63504000D01*
X122066571Y-63432571D01*
X122280857Y-63432571D01*
X122423714Y-63504000D01*
X122495142Y-63646857D01*
X122495142Y-64432571D01*
X123423714Y-64432571D02*
X123280857Y-64361142D01*
X123209428Y-64289714D01*
X123138000Y-64146857D01*
X123138000Y-63718285D01*
X123209428Y-63575428D01*
X123280857Y-63504000D01*
X123423714Y-63432571D01*
X123638000Y-63432571D01*
X123780857Y-63504000D01*
X123852285Y-63575428D01*
X123923714Y-63718285D01*
X123923714Y-64146857D01*
X123852285Y-64289714D01*
X123780857Y-64361142D01*
X123638000Y-64432571D01*
X123423714Y-64432571D01*
X159952857Y-84239571D02*
X159952857Y-82739571D01*
X161167142Y-83453857D02*
X161381428Y-83525285D01*
X161452857Y-83596714D01*
X161524285Y-83739571D01*
X161524285Y-83953857D01*
X161452857Y-84096714D01*
X161381428Y-84168142D01*
X161238571Y-84239571D01*
X160667142Y-84239571D01*
X160667142Y-82739571D01*
X161167142Y-82739571D01*
X161310000Y-82811000D01*
X161381428Y-82882428D01*
X161452857Y-83025285D01*
X161452857Y-83168142D01*
X161381428Y-83311000D01*
X161310000Y-83382428D01*
X161167142Y-83453857D01*
X160667142Y-83453857D01*
X161952857Y-82739571D02*
X162810000Y-82739571D01*
X162381428Y-84239571D02*
X162381428Y-82739571D01*
X162952857Y-84382428D02*
X164095714Y-84382428D01*
X164381428Y-82882428D02*
X164452857Y-82811000D01*
X164595714Y-82739571D01*
X164952857Y-82739571D01*
X165095714Y-82811000D01*
X165167142Y-82882428D01*
X165238571Y-83025285D01*
X165238571Y-83168142D01*
X165167142Y-83382428D01*
X164310000Y-84239571D01*
X165238571Y-84239571D01*
X158095714Y-86789571D02*
X158095714Y-85289571D01*
X158095714Y-86003857D02*
X158952857Y-86003857D01*
X158952857Y-86789571D02*
X158952857Y-85289571D01*
X160167142Y-86003857D02*
X160381428Y-86075285D01*
X160452857Y-86146714D01*
X160524285Y-86289571D01*
X160524285Y-86503857D01*
X160452857Y-86646714D01*
X160381428Y-86718142D01*
X160238571Y-86789571D01*
X159667142Y-86789571D01*
X159667142Y-85289571D01*
X160167142Y-85289571D01*
X160310000Y-85361000D01*
X160381428Y-85432428D01*
X160452857Y-85575285D01*
X160452857Y-85718142D01*
X160381428Y-85861000D01*
X160310000Y-85932428D01*
X160167142Y-86003857D01*
X159667142Y-86003857D01*
X162024285Y-86789571D02*
X161524285Y-86075285D01*
X161167142Y-86789571D02*
X161167142Y-85289571D01*
X161738571Y-85289571D01*
X161881428Y-85361000D01*
X161952857Y-85432428D01*
X162024285Y-85575285D01*
X162024285Y-85789571D01*
X161952857Y-85932428D01*
X161881428Y-86003857D01*
X161738571Y-86075285D01*
X161167142Y-86075285D01*
X162667142Y-86789571D02*
X162667142Y-85289571D01*
X163381428Y-86789571D02*
X163381428Y-85289571D01*
X163738571Y-85289571D01*
X163952857Y-85361000D01*
X164095714Y-85503857D01*
X164167142Y-85646714D01*
X164238571Y-85932428D01*
X164238571Y-86146714D01*
X164167142Y-86432428D01*
X164095714Y-86575285D01*
X163952857Y-86718142D01*
X163738571Y-86789571D01*
X163381428Y-86789571D01*
X165667142Y-85361000D02*
X165524285Y-85289571D01*
X165310000Y-85289571D01*
X165095714Y-85361000D01*
X164952857Y-85503857D01*
X164881428Y-85646714D01*
X164810000Y-85932428D01*
X164810000Y-86146714D01*
X164881428Y-86432428D01*
X164952857Y-86575285D01*
X165095714Y-86718142D01*
X165310000Y-86789571D01*
X165452857Y-86789571D01*
X165667142Y-86718142D01*
X165738571Y-86646714D01*
X165738571Y-86146714D01*
X165452857Y-86146714D01*
X166381428Y-86003857D02*
X166881428Y-86003857D01*
X167095714Y-86789571D02*
X166381428Y-86789571D01*
X166381428Y-85289571D01*
X167095714Y-85289571D01*
X139045142Y-122784857D02*
X139045142Y-121642000D01*
X139616571Y-122213428D02*
X138473714Y-122213428D01*
X139616571Y-120142000D02*
X139616571Y-120999142D01*
X139616571Y-120570571D02*
X138116571Y-120570571D01*
X138330857Y-120713428D01*
X138473714Y-120856285D01*
X138545142Y-120999142D01*
X138259428Y-119570571D02*
X138188000Y-119499142D01*
X138116571Y-119356285D01*
X138116571Y-118999142D01*
X138188000Y-118856285D01*
X138259428Y-118784857D01*
X138402285Y-118713428D01*
X138545142Y-118713428D01*
X138759428Y-118784857D01*
X139616571Y-119642000D01*
X139616571Y-118713428D01*
X138116571Y-118284857D02*
X139616571Y-117784857D01*
X138116571Y-117284857D01*
X128869714Y-112946571D02*
X128869714Y-111446571D01*
X129441142Y-111446571D01*
X129584000Y-111518000D01*
X129655428Y-111589428D01*
X129726857Y-111732285D01*
X129726857Y-111946571D01*
X129655428Y-112089428D01*
X129584000Y-112160857D01*
X129441142Y-112232285D01*
X128869714Y-112232285D01*
X130655428Y-111446571D02*
X130941142Y-111446571D01*
X131084000Y-111518000D01*
X131226857Y-111660857D01*
X131298285Y-111946571D01*
X131298285Y-112446571D01*
X131226857Y-112732285D01*
X131084000Y-112875142D01*
X130941142Y-112946571D01*
X130655428Y-112946571D01*
X130512571Y-112875142D01*
X130369714Y-112732285D01*
X130298285Y-112446571D01*
X130298285Y-111946571D01*
X130369714Y-111660857D01*
X130512571Y-111518000D01*
X130655428Y-111446571D01*
X131798285Y-111446571D02*
X132155428Y-112946571D01*
X132441142Y-111875142D01*
X132726857Y-112946571D01*
X133084000Y-111446571D01*
X133655428Y-112160857D02*
X134155428Y-112160857D01*
X134369714Y-112946571D02*
X133655428Y-112946571D01*
X133655428Y-111446571D01*
X134369714Y-111446571D01*
X135869714Y-112946571D02*
X135369714Y-112232285D01*
X135012571Y-112946571D02*
X135012571Y-111446571D01*
X135584000Y-111446571D01*
X135726857Y-111518000D01*
X135798285Y-111589428D01*
X135869714Y-111732285D01*
X135869714Y-111946571D01*
X135798285Y-112089428D01*
X135726857Y-112160857D01*
X135584000Y-112232285D01*
X135012571Y-112232285D01*
X122281142Y-123038857D02*
X122281142Y-121896000D01*
X122852571Y-122467428D02*
X121709714Y-122467428D01*
X122852571Y-120396000D02*
X122852571Y-121253142D01*
X122852571Y-120824571D02*
X121352571Y-120824571D01*
X121566857Y-120967428D01*
X121709714Y-121110285D01*
X121781142Y-121253142D01*
X121495428Y-119824571D02*
X121424000Y-119753142D01*
X121352571Y-119610285D01*
X121352571Y-119253142D01*
X121424000Y-119110285D01*
X121495428Y-119038857D01*
X121638285Y-118967428D01*
X121781142Y-118967428D01*
X121995428Y-119038857D01*
X122852571Y-119896000D01*
X122852571Y-118967428D01*
X121352571Y-118538857D02*
X122852571Y-118038857D01*
X121352571Y-117538857D01*
X98020285Y-119296571D02*
X98020285Y-117796571D01*
X98734571Y-119296571D02*
X98734571Y-117796571D01*
X99591714Y-119296571D01*
X99591714Y-117796571D01*
X107910571Y-112946571D02*
X107410571Y-112232285D01*
X107053428Y-112946571D02*
X107053428Y-111446571D01*
X107624857Y-111446571D01*
X107767714Y-111518000D01*
X107839142Y-111589428D01*
X107910571Y-111732285D01*
X107910571Y-111946571D01*
X107839142Y-112089428D01*
X107767714Y-112160857D01*
X107624857Y-112232285D01*
X107053428Y-112232285D01*
X108482000Y-112518000D02*
X109196285Y-112518000D01*
X108339142Y-112946571D02*
X108839142Y-111446571D01*
X109339142Y-112946571D01*
X109839142Y-112946571D02*
X109839142Y-111446571D01*
X110196285Y-111446571D01*
X110410571Y-111518000D01*
X110553428Y-111660857D01*
X110624857Y-111803714D01*
X110696285Y-112089428D01*
X110696285Y-112303714D01*
X110624857Y-112589428D01*
X110553428Y-112732285D01*
X110410571Y-112875142D01*
X110196285Y-112946571D01*
X109839142Y-112946571D01*
X111339142Y-112946571D02*
X111339142Y-111446571D01*
X112339142Y-111446571D02*
X112624857Y-111446571D01*
X112767714Y-111518000D01*
X112910571Y-111660857D01*
X112982000Y-111946571D01*
X112982000Y-112446571D01*
X112910571Y-112732285D01*
X112767714Y-112875142D01*
X112624857Y-112946571D01*
X112339142Y-112946571D01*
X112196285Y-112875142D01*
X112053428Y-112732285D01*
X111982000Y-112446571D01*
X111982000Y-111946571D01*
X112053428Y-111660857D01*
X112196285Y-111518000D01*
X112339142Y-111446571D01*
X77510000Y-113021000D02*
X78224285Y-113021000D01*
X77367142Y-113449571D02*
X77867142Y-111949571D01*
X78367142Y-113449571D01*
X78867142Y-111949571D02*
X78867142Y-113163857D01*
X78938571Y-113306714D01*
X79010000Y-113378142D01*
X79152857Y-113449571D01*
X79438571Y-113449571D01*
X79581428Y-113378142D01*
X79652857Y-113306714D01*
X79724285Y-113163857D01*
X79724285Y-111949571D01*
X80224285Y-111949571D02*
X81081428Y-111949571D01*
X80652857Y-113449571D02*
X80652857Y-111949571D01*
X81867142Y-111949571D02*
X82152857Y-111949571D01*
X82295714Y-112021000D01*
X82438571Y-112163857D01*
X82510000Y-112449571D01*
X82510000Y-112949571D01*
X82438571Y-113235285D01*
X82295714Y-113378142D01*
X82152857Y-113449571D01*
X81867142Y-113449571D01*
X81724285Y-113378142D01*
X81581428Y-113235285D01*
X81510000Y-112949571D01*
X81510000Y-112449571D01*
X81581428Y-112163857D01*
X81724285Y-112021000D01*
X81867142Y-111949571D01*
X77688571Y-115856714D02*
X77617142Y-115928142D01*
X77402857Y-115999571D01*
X77260000Y-115999571D01*
X77045714Y-115928142D01*
X76902857Y-115785285D01*
X76831428Y-115642428D01*
X76760000Y-115356714D01*
X76760000Y-115142428D01*
X76831428Y-114856714D01*
X76902857Y-114713857D01*
X77045714Y-114571000D01*
X77260000Y-114499571D01*
X77402857Y-114499571D01*
X77617142Y-114571000D01*
X77688571Y-114642428D01*
X79045714Y-115999571D02*
X78331428Y-115999571D01*
X78331428Y-114499571D01*
X79831428Y-114499571D02*
X80117142Y-114499571D01*
X80260000Y-114571000D01*
X80402857Y-114713857D01*
X80474285Y-114999571D01*
X80474285Y-115499571D01*
X80402857Y-115785285D01*
X80260000Y-115928142D01*
X80117142Y-115999571D01*
X79831428Y-115999571D01*
X79688571Y-115928142D01*
X79545714Y-115785285D01*
X79474285Y-115499571D01*
X79474285Y-114999571D01*
X79545714Y-114713857D01*
X79688571Y-114571000D01*
X79831428Y-114499571D01*
X81045714Y-115928142D02*
X81260000Y-115999571D01*
X81617142Y-115999571D01*
X81760000Y-115928142D01*
X81831428Y-115856714D01*
X81902857Y-115713857D01*
X81902857Y-115571000D01*
X81831428Y-115428142D01*
X81760000Y-115356714D01*
X81617142Y-115285285D01*
X81331428Y-115213857D01*
X81188571Y-115142428D01*
X81117142Y-115071000D01*
X81045714Y-114928142D01*
X81045714Y-114785285D01*
X81117142Y-114642428D01*
X81188571Y-114571000D01*
X81331428Y-114499571D01*
X81688571Y-114499571D01*
X81902857Y-114571000D01*
X82545714Y-115213857D02*
X83045714Y-115213857D01*
X83260000Y-115999571D02*
X82545714Y-115999571D01*
X82545714Y-114499571D01*
X83260000Y-114499571D01*
X77260000Y-70528571D02*
X76545714Y-70528571D01*
X76545714Y-69028571D01*
X78045714Y-69028571D02*
X78331428Y-69028571D01*
X78474285Y-69100000D01*
X78617142Y-69242857D01*
X78688571Y-69528571D01*
X78688571Y-70028571D01*
X78617142Y-70314285D01*
X78474285Y-70457142D01*
X78331428Y-70528571D01*
X78045714Y-70528571D01*
X77902857Y-70457142D01*
X77760000Y-70314285D01*
X77688571Y-70028571D01*
X77688571Y-69528571D01*
X77760000Y-69242857D01*
X77902857Y-69100000D01*
X78045714Y-69028571D01*
X80188571Y-70385714D02*
X80117142Y-70457142D01*
X79902857Y-70528571D01*
X79760000Y-70528571D01*
X79545714Y-70457142D01*
X79402857Y-70314285D01*
X79331428Y-70171428D01*
X79260000Y-69885714D01*
X79260000Y-69671428D01*
X79331428Y-69385714D01*
X79402857Y-69242857D01*
X79545714Y-69100000D01*
X79760000Y-69028571D01*
X79902857Y-69028571D01*
X80117142Y-69100000D01*
X80188571Y-69171428D01*
X80831428Y-70528571D02*
X80831428Y-69028571D01*
X81688571Y-70528571D02*
X81045714Y-69671428D01*
X81688571Y-69028571D02*
X80831428Y-69885714D01*
X82331428Y-69957142D02*
X83474285Y-69957142D01*
X82902857Y-70528571D02*
X82902857Y-69385714D01*
X160143428Y-119728142D02*
X160357714Y-119799571D01*
X160714857Y-119799571D01*
X160857714Y-119728142D01*
X160929142Y-119656714D01*
X161000571Y-119513857D01*
X161000571Y-119371000D01*
X160929142Y-119228142D01*
X160857714Y-119156714D01*
X160714857Y-119085285D01*
X160429142Y-119013857D01*
X160286285Y-118942428D01*
X160214857Y-118871000D01*
X160143428Y-118728142D01*
X160143428Y-118585285D01*
X160214857Y-118442428D01*
X160286285Y-118371000D01*
X160429142Y-118299571D01*
X160786285Y-118299571D01*
X161000571Y-118371000D01*
X161500571Y-118299571D02*
X161857714Y-119799571D01*
X162143428Y-118728142D01*
X162429142Y-119799571D01*
X162786285Y-118299571D01*
X163357714Y-119799571D02*
X163357714Y-118299571D01*
X164072000Y-119799571D02*
X164072000Y-118299571D01*
X164929142Y-119799571D01*
X164929142Y-118299571D01*
X166429142Y-118371000D02*
X166286285Y-118299571D01*
X166072000Y-118299571D01*
X165857714Y-118371000D01*
X165714857Y-118513857D01*
X165643428Y-118656714D01*
X165572000Y-118942428D01*
X165572000Y-119156714D01*
X165643428Y-119442428D01*
X165714857Y-119585285D01*
X165857714Y-119728142D01*
X166072000Y-119799571D01*
X166214857Y-119799571D01*
X166429142Y-119728142D01*
X166500571Y-119656714D01*
X166500571Y-119156714D01*
X166214857Y-119156714D01*
X159929142Y-122349571D02*
X159929142Y-120849571D01*
X160429142Y-121921000D01*
X160929142Y-120849571D01*
X160929142Y-122349571D01*
X161929142Y-120849571D02*
X162214857Y-120849571D01*
X162357714Y-120921000D01*
X162500571Y-121063857D01*
X162572000Y-121349571D01*
X162572000Y-121849571D01*
X162500571Y-122135285D01*
X162357714Y-122278142D01*
X162214857Y-122349571D01*
X161929142Y-122349571D01*
X161786285Y-122278142D01*
X161643428Y-122135285D01*
X161572000Y-121849571D01*
X161572000Y-121349571D01*
X161643428Y-121063857D01*
X161786285Y-120921000D01*
X161929142Y-120849571D01*
X163000571Y-120849571D02*
X163857714Y-120849571D01*
X163429142Y-122349571D02*
X163429142Y-120849571D01*
X164643428Y-120849571D02*
X164929142Y-120849571D01*
X165072000Y-120921000D01*
X165214857Y-121063857D01*
X165286285Y-121349571D01*
X165286285Y-121849571D01*
X165214857Y-122135285D01*
X165072000Y-122278142D01*
X164929142Y-122349571D01*
X164643428Y-122349571D01*
X164500571Y-122278142D01*
X164357714Y-122135285D01*
X164286285Y-121849571D01*
X164286285Y-121349571D01*
X164357714Y-121063857D01*
X164500571Y-120921000D01*
X164643428Y-120849571D01*
X166786285Y-122349571D02*
X166286285Y-121635285D01*
X165929142Y-122349571D02*
X165929142Y-120849571D01*
X166500571Y-120849571D01*
X166643428Y-120921000D01*
X166714857Y-120992428D01*
X166786285Y-121135285D01*
X166786285Y-121349571D01*
X166714857Y-121492428D01*
X166643428Y-121563857D01*
X166500571Y-121635285D01*
X165929142Y-121635285D01*
D11*
G04 #@! TO.C,U3*
X138490001Y-63560001D02*
X141030001Y-61020001D01*
X138490001Y-109280001D02*
X138490001Y-63560001D01*
X141030001Y-111820001D02*
X138490001Y-109280001D01*
X186750001Y-111820001D02*
X141030001Y-111820001D01*
X189290001Y-109280001D02*
X186750001Y-111820001D01*
X189290001Y-63560001D02*
X189290001Y-109280001D01*
X186750001Y-61020001D02*
X189290001Y-63560001D01*
X141030001Y-61020001D02*
X186750001Y-61020001D01*
G04 #@! TO.C,C1*
X118126252Y-75490000D02*
X117603748Y-75490000D01*
X118126252Y-76910000D02*
X117603748Y-76910000D01*
G04 #@! TO.C,C2*
X119118748Y-84530000D02*
X119641252Y-84530000D01*
X119118748Y-83110000D02*
X119641252Y-83110000D01*
G04 #@! TO.C,C3*
X99770000Y-101326252D02*
X99770000Y-100803748D01*
X98350000Y-101326252D02*
X98350000Y-100803748D01*
G04 #@! TO.C,C4*
X128531252Y-96826000D02*
X128008748Y-96826000D01*
X128531252Y-98246000D02*
X128008748Y-98246000D01*
G04 #@! TO.C,C5*
X128286252Y-108510000D02*
X127763748Y-108510000D01*
X128286252Y-109930000D02*
X127763748Y-109930000D01*
G04 #@! TO.C,D1*
X87606000Y-78876000D02*
X95156000Y-78876000D01*
X87606000Y-83176000D02*
X95156000Y-83176000D01*
X87606000Y-78876000D02*
X87606000Y-83176000D01*
G04 #@! TO.C,J1*
X129240000Y-114240000D02*
X129840000Y-114240000D01*
X129540000Y-114840000D02*
X129240000Y-114240000D01*
X129840000Y-114240000D02*
X129540000Y-114840000D01*
X126890000Y-121640000D02*
X137270000Y-121640000D01*
X130590000Y-115530000D02*
X133570000Y-115530000D01*
X137270000Y-115530000D02*
X135670000Y-115530000D01*
X126890000Y-115530000D02*
X128490000Y-115530000D01*
X137270000Y-124950000D02*
X137270000Y-115530000D01*
X126890000Y-124950000D02*
X137270000Y-124950000D01*
X126890000Y-115530000D02*
X126890000Y-124950000D01*
G04 #@! TO.C,J3*
X86060000Y-114240000D02*
X86660000Y-114240000D01*
X86360000Y-114840000D02*
X86060000Y-114240000D01*
X86660000Y-114240000D02*
X86360000Y-114840000D01*
X83710000Y-121640000D02*
X94090000Y-121640000D01*
X87410000Y-115530000D02*
X90390000Y-115530000D01*
X94090000Y-115530000D02*
X92490000Y-115530000D01*
X83710000Y-115530000D02*
X85310000Y-115530000D01*
X94090000Y-124950000D02*
X94090000Y-115530000D01*
X83710000Y-124950000D02*
X94090000Y-124950000D01*
X83710000Y-115530000D02*
X83710000Y-124950000D01*
G04 #@! TO.C,J4*
X83880000Y-73360000D02*
X83880000Y-73960000D01*
X83280000Y-73660000D02*
X83880000Y-73360000D01*
X83880000Y-73960000D02*
X83280000Y-73660000D01*
X76480000Y-71010000D02*
X76480000Y-81390000D01*
X82590000Y-74710000D02*
X82590000Y-77690000D01*
X82590000Y-81390000D02*
X82590000Y-79790000D01*
X82590000Y-71010000D02*
X82590000Y-72610000D01*
X73170000Y-81390000D02*
X82590000Y-81390000D01*
X73170000Y-71010000D02*
X73170000Y-81390000D01*
X82590000Y-71010000D02*
X73170000Y-71010000D01*
G04 #@! TO.C,J5*
X150830000Y-114240000D02*
X151430000Y-114240000D01*
X151130000Y-114840000D02*
X150830000Y-114240000D01*
X151430000Y-114240000D02*
X151130000Y-114840000D01*
X148480000Y-121640000D02*
X158860000Y-121640000D01*
X152180000Y-115530000D02*
X155160000Y-115530000D01*
X158860000Y-115530000D02*
X157260000Y-115530000D01*
X148480000Y-115530000D02*
X150080000Y-115530000D01*
X158860000Y-124950000D02*
X158860000Y-115530000D01*
X148480000Y-124950000D02*
X158860000Y-124950000D01*
X148480000Y-115530000D02*
X148480000Y-124950000D01*
G04 #@! TO.C,Q1*
X98640000Y-71530000D02*
X98640000Y-72630000D01*
X100450000Y-71530000D02*
X98640000Y-71530000D01*
X100450000Y-70030000D02*
X100450000Y-71530000D01*
X91860000Y-71530000D02*
X91860000Y-76655000D01*
X90050000Y-71530000D02*
X91860000Y-71530000D01*
X90050000Y-70030000D02*
X90050000Y-71530000D01*
G04 #@! TO.C,R3*
X103869748Y-77672000D02*
X104392252Y-77672000D01*
X103869748Y-76252000D02*
X104392252Y-76252000D01*
G04 #@! TO.C,R4*
X115553748Y-70560000D02*
X116076252Y-70560000D01*
X115553748Y-69140000D02*
X116076252Y-69140000D01*
G04 #@! TO.C,R5*
X94540000Y-91432748D02*
X94540000Y-91955252D01*
X95960000Y-91432748D02*
X95960000Y-91955252D01*
G04 #@! TO.C,R6*
X105426252Y-108510000D02*
X104903748Y-108510000D01*
X105426252Y-109930000D02*
X104903748Y-109930000D01*
G04 #@! TO.C,R7*
X169620000Y-64786252D02*
X169620000Y-64263748D01*
X168200000Y-64786252D02*
X168200000Y-64263748D01*
G04 #@! TO.C,R8*
X164540000Y-64786252D02*
X164540000Y-64263748D01*
X163120000Y-64786252D02*
X163120000Y-64263748D01*
G04 #@! TO.C,R9*
X98350000Y-107443748D02*
X98350000Y-107966252D01*
X99770000Y-107443748D02*
X99770000Y-107966252D01*
G04 #@! TO.C,R10*
X120143748Y-73100000D02*
X120666252Y-73100000D01*
X120143748Y-71680000D02*
X120666252Y-71680000D01*
G04 #@! TO.C,R11*
X119118748Y-80720000D02*
X119641252Y-80720000D01*
X119118748Y-79300000D02*
X119641252Y-79300000D01*
G04 #@! TO.C,R12*
X104342000Y-101090252D02*
X104342000Y-100567748D01*
X102922000Y-101090252D02*
X102922000Y-100567748D01*
G04 #@! TO.C,R13*
X133856252Y-99620000D02*
X133333748Y-99620000D01*
X133856252Y-101040000D02*
X133333748Y-101040000D01*
G04 #@! TO.C,R14*
X128531252Y-99620000D02*
X128008748Y-99620000D01*
X128531252Y-101040000D02*
X128008748Y-101040000D01*
G04 #@! TO.C,R15*
X133366252Y-104700000D02*
X132843748Y-104700000D01*
X133366252Y-106120000D02*
X132843748Y-106120000D01*
G04 #@! TO.C,R16*
X128286252Y-104700000D02*
X127763748Y-104700000D01*
X128286252Y-106120000D02*
X127763748Y-106120000D01*
G04 #@! TO.C,U1*
X74800000Y-110810000D02*
X90300000Y-110810000D01*
X74800000Y-87310000D02*
X74800000Y-110810000D01*
X90300000Y-87310000D02*
X74800000Y-87310000D01*
X90300000Y-110810000D02*
X90300000Y-87310000D01*
G04 #@! TO.C,U2*
X109156500Y-93980000D02*
X127063500Y-93980000D01*
X111633000Y-91503500D02*
X111633000Y-93980000D01*
X129540000Y-91567000D02*
X129540000Y-93980000D01*
X132080000Y-93980000D02*
X132080000Y-91694000D01*
X127063500Y-93980000D02*
X132080000Y-93980000D01*
X109156500Y-91567000D02*
X109156500Y-93980000D01*
D12*
X127060000Y-60840000D02*
X132140000Y-60840000D01*
D11*
X127060000Y-60840000D02*
X109160000Y-60840000D01*
X132080000Y-91680000D02*
X132080000Y-60960000D01*
X109160000Y-60840000D02*
X109160000Y-91560000D01*
X124570000Y-60900000D02*
X119110000Y-60900000D01*
X129540000Y-91560000D02*
X129540000Y-60960000D01*
X111650000Y-60900000D02*
X111650000Y-91500000D01*
X117110000Y-60900000D02*
X111650000Y-60900000D01*
X121650000Y-60900000D02*
G75*
G02X119650000Y-60900000I-1000000J0D01*
G01*
G04 #@! TO.C,J2*
X102570000Y-114240000D02*
X103170000Y-114240000D01*
X102870000Y-114840000D02*
X102570000Y-114240000D01*
X103170000Y-114240000D02*
X102870000Y-114840000D01*
X100220000Y-121640000D02*
X120760000Y-121640000D01*
X114080000Y-115530000D02*
X117060000Y-115530000D01*
X109000000Y-115530000D02*
X111980000Y-115530000D01*
X103920000Y-115530000D02*
X106900000Y-115530000D01*
X120760000Y-115530000D02*
X119160000Y-115530000D01*
X100220000Y-115530000D02*
X101820000Y-115530000D01*
X120760000Y-124950000D02*
X120760000Y-115530000D01*
X100220000Y-124950000D02*
X120760000Y-124950000D01*
X100220000Y-115530000D02*
X100220000Y-124950000D01*
G04 #@! TO.C,U3*
X171958095Y-59396380D02*
X171958095Y-60205904D01*
X172005714Y-60301142D01*
X172053333Y-60348761D01*
X172148571Y-60396380D01*
X172339047Y-60396380D01*
X172434285Y-60348761D01*
X172481904Y-60301142D01*
X172529523Y-60205904D01*
X172529523Y-59396380D01*
X172910476Y-59396380D02*
X173529523Y-59396380D01*
X173196190Y-59777333D01*
X173339047Y-59777333D01*
X173434285Y-59824952D01*
X173481904Y-59872571D01*
X173529523Y-59967809D01*
X173529523Y-60205904D01*
X173481904Y-60301142D01*
X173434285Y-60348761D01*
X173339047Y-60396380D01*
X173053333Y-60396380D01*
X172958095Y-60348761D01*
X172910476Y-60301142D01*
G04 #@! TO.C,H1*
D12*
X77978095Y-61422380D02*
X77978095Y-60422380D01*
X77978095Y-60898571D02*
X78549523Y-60898571D01*
X78549523Y-61422380D02*
X78549523Y-60422380D01*
X79549523Y-61422380D02*
X78978095Y-61422380D01*
X79263809Y-61422380D02*
X79263809Y-60422380D01*
X79168571Y-60565238D01*
X79073333Y-60660476D01*
X78978095Y-60708095D01*
G04 #@! TO.C,H2*
X74168095Y-122880380D02*
X74168095Y-121880380D01*
X74168095Y-122356571D02*
X74739523Y-122356571D01*
X74739523Y-122880380D02*
X74739523Y-121880380D01*
X75168095Y-121975619D02*
X75215714Y-121928000D01*
X75310952Y-121880380D01*
X75549047Y-121880380D01*
X75644285Y-121928000D01*
X75691904Y-121975619D01*
X75739523Y-122070857D01*
X75739523Y-122166095D01*
X75691904Y-122308952D01*
X75120476Y-122880380D01*
X75739523Y-122880380D01*
G04 #@! TO.C,H3*
X186436095Y-121610380D02*
X186436095Y-120610380D01*
X186436095Y-121086571D02*
X187007523Y-121086571D01*
X187007523Y-121610380D02*
X187007523Y-120610380D01*
X187388476Y-120610380D02*
X188007523Y-120610380D01*
X187674190Y-120991333D01*
X187817047Y-120991333D01*
X187912285Y-121038952D01*
X187959904Y-121086571D01*
X188007523Y-121181809D01*
X188007523Y-121419904D01*
X187959904Y-121515142D01*
X187912285Y-121562761D01*
X187817047Y-121610380D01*
X187531333Y-121610380D01*
X187436095Y-121562761D01*
X187388476Y-121515142D01*
G04 #@! TO.C,C1*
X120737333Y-76557142D02*
X120689714Y-76604761D01*
X120546857Y-76652380D01*
X120451619Y-76652380D01*
X120308761Y-76604761D01*
X120213523Y-76509523D01*
X120165904Y-76414285D01*
X120118285Y-76223809D01*
X120118285Y-76080952D01*
X120165904Y-75890476D01*
X120213523Y-75795238D01*
X120308761Y-75700000D01*
X120451619Y-75652380D01*
X120546857Y-75652380D01*
X120689714Y-75700000D01*
X120737333Y-75747619D01*
X121689714Y-76652380D02*
X121118285Y-76652380D01*
X121404000Y-76652380D02*
X121404000Y-75652380D01*
X121308761Y-75795238D01*
X121213523Y-75890476D01*
X121118285Y-75938095D01*
G04 #@! TO.C,C2*
X116165333Y-84177142D02*
X116117714Y-84224761D01*
X115974857Y-84272380D01*
X115879619Y-84272380D01*
X115736761Y-84224761D01*
X115641523Y-84129523D01*
X115593904Y-84034285D01*
X115546285Y-83843809D01*
X115546285Y-83700952D01*
X115593904Y-83510476D01*
X115641523Y-83415238D01*
X115736761Y-83320000D01*
X115879619Y-83272380D01*
X115974857Y-83272380D01*
X116117714Y-83320000D01*
X116165333Y-83367619D01*
X116546285Y-83367619D02*
X116593904Y-83320000D01*
X116689142Y-83272380D01*
X116927238Y-83272380D01*
X117022476Y-83320000D01*
X117070095Y-83367619D01*
X117117714Y-83462857D01*
X117117714Y-83558095D01*
X117070095Y-83700952D01*
X116498666Y-84272380D01*
X117117714Y-84272380D01*
G04 #@! TO.C,C3*
X96607333Y-101449142D02*
X96559714Y-101496761D01*
X96416857Y-101544380D01*
X96321619Y-101544380D01*
X96178761Y-101496761D01*
X96083523Y-101401523D01*
X96035904Y-101306285D01*
X95988285Y-101115809D01*
X95988285Y-100972952D01*
X96035904Y-100782476D01*
X96083523Y-100687238D01*
X96178761Y-100592000D01*
X96321619Y-100544380D01*
X96416857Y-100544380D01*
X96559714Y-100592000D01*
X96607333Y-100639619D01*
X96940666Y-100544380D02*
X97559714Y-100544380D01*
X97226380Y-100925333D01*
X97369238Y-100925333D01*
X97464476Y-100972952D01*
X97512095Y-101020571D01*
X97559714Y-101115809D01*
X97559714Y-101353904D01*
X97512095Y-101449142D01*
X97464476Y-101496761D01*
X97369238Y-101544380D01*
X97083523Y-101544380D01*
X96988285Y-101496761D01*
X96940666Y-101449142D01*
G04 #@! TO.C,C4*
X124801333Y-98147142D02*
X124753714Y-98194761D01*
X124610857Y-98242380D01*
X124515619Y-98242380D01*
X124372761Y-98194761D01*
X124277523Y-98099523D01*
X124229904Y-98004285D01*
X124182285Y-97813809D01*
X124182285Y-97670952D01*
X124229904Y-97480476D01*
X124277523Y-97385238D01*
X124372761Y-97290000D01*
X124515619Y-97242380D01*
X124610857Y-97242380D01*
X124753714Y-97290000D01*
X124801333Y-97337619D01*
X125658476Y-97575714D02*
X125658476Y-98242380D01*
X125420380Y-97194761D02*
X125182285Y-97909047D01*
X125801333Y-97909047D01*
G04 #@! TO.C,C5*
X124293333Y-109577142D02*
X124245714Y-109624761D01*
X124102857Y-109672380D01*
X124007619Y-109672380D01*
X123864761Y-109624761D01*
X123769523Y-109529523D01*
X123721904Y-109434285D01*
X123674285Y-109243809D01*
X123674285Y-109100952D01*
X123721904Y-108910476D01*
X123769523Y-108815238D01*
X123864761Y-108720000D01*
X124007619Y-108672380D01*
X124102857Y-108672380D01*
X124245714Y-108720000D01*
X124293333Y-108767619D01*
X125198095Y-108672380D02*
X124721904Y-108672380D01*
X124674285Y-109148571D01*
X124721904Y-109100952D01*
X124817142Y-109053333D01*
X125055238Y-109053333D01*
X125150476Y-109100952D01*
X125198095Y-109148571D01*
X125245714Y-109243809D01*
X125245714Y-109481904D01*
X125198095Y-109577142D01*
X125150476Y-109624761D01*
X125055238Y-109672380D01*
X124817142Y-109672380D01*
X124721904Y-109624761D01*
X124674285Y-109577142D01*
G04 #@! TO.C,D1*
X91717904Y-78478380D02*
X91717904Y-77478380D01*
X91956000Y-77478380D01*
X92098857Y-77526000D01*
X92194095Y-77621238D01*
X92241714Y-77716476D01*
X92289333Y-77906952D01*
X92289333Y-78049809D01*
X92241714Y-78240285D01*
X92194095Y-78335523D01*
X92098857Y-78430761D01*
X91956000Y-78478380D01*
X91717904Y-78478380D01*
X93241714Y-78478380D02*
X92670285Y-78478380D01*
X92956000Y-78478380D02*
X92956000Y-77478380D01*
X92860761Y-77621238D01*
X92765523Y-77716476D01*
X92670285Y-77764095D01*
G04 #@! TO.C,J1*
X131746666Y-113292380D02*
X131746666Y-114006666D01*
X131699047Y-114149523D01*
X131603809Y-114244761D01*
X131460952Y-114292380D01*
X131365714Y-114292380D01*
X132746666Y-114292380D02*
X132175238Y-114292380D01*
X132460952Y-114292380D02*
X132460952Y-113292380D01*
X132365714Y-113435238D01*
X132270476Y-113530476D01*
X132175238Y-113578095D01*
G04 #@! TO.C,J3*
X88566666Y-113292380D02*
X88566666Y-114006666D01*
X88519047Y-114149523D01*
X88423809Y-114244761D01*
X88280952Y-114292380D01*
X88185714Y-114292380D01*
X88947619Y-113292380D02*
X89566666Y-113292380D01*
X89233333Y-113673333D01*
X89376190Y-113673333D01*
X89471428Y-113720952D01*
X89519047Y-113768571D01*
X89566666Y-113863809D01*
X89566666Y-114101904D01*
X89519047Y-114197142D01*
X89471428Y-114244761D01*
X89376190Y-114292380D01*
X89090476Y-114292380D01*
X88995238Y-114244761D01*
X88947619Y-114197142D01*
G04 #@! TO.C,J4*
X82470666Y-67778380D02*
X82470666Y-68492666D01*
X82423047Y-68635523D01*
X82327809Y-68730761D01*
X82184952Y-68778380D01*
X82089714Y-68778380D01*
X83375428Y-68111714D02*
X83375428Y-68778380D01*
X83137333Y-67730761D02*
X82899238Y-68445047D01*
X83518285Y-68445047D01*
G04 #@! TO.C,J5*
X153336666Y-113292380D02*
X153336666Y-114006666D01*
X153289047Y-114149523D01*
X153193809Y-114244761D01*
X153050952Y-114292380D01*
X152955714Y-114292380D01*
X154289047Y-113292380D02*
X153812857Y-113292380D01*
X153765238Y-113768571D01*
X153812857Y-113720952D01*
X153908095Y-113673333D01*
X154146190Y-113673333D01*
X154241428Y-113720952D01*
X154289047Y-113768571D01*
X154336666Y-113863809D01*
X154336666Y-114101904D01*
X154289047Y-114197142D01*
X154241428Y-114244761D01*
X154146190Y-114292380D01*
X153908095Y-114292380D01*
X153812857Y-114244761D01*
X153765238Y-114197142D01*
G04 #@! TO.C,Q1*
X89147619Y-68675238D02*
X89100000Y-68770476D01*
X89004761Y-68865714D01*
X88861904Y-69008571D01*
X88814285Y-69103809D01*
X88814285Y-69199047D01*
X89052380Y-69151428D02*
X89004761Y-69246666D01*
X88909523Y-69341904D01*
X88719047Y-69389523D01*
X88385714Y-69389523D01*
X88195238Y-69341904D01*
X88100000Y-69246666D01*
X88052380Y-69151428D01*
X88052380Y-68960952D01*
X88100000Y-68865714D01*
X88195238Y-68770476D01*
X88385714Y-68722857D01*
X88719047Y-68722857D01*
X88909523Y-68770476D01*
X89004761Y-68865714D01*
X89052380Y-68960952D01*
X89052380Y-69151428D01*
X89052380Y-67770476D02*
X89052380Y-68341904D01*
X89052380Y-68056190D02*
X88052380Y-68056190D01*
X88195238Y-68151428D01*
X88290476Y-68246666D01*
X88338095Y-68341904D01*
G04 #@! TO.C,R3*
X103964333Y-75764380D02*
X103631000Y-75288190D01*
X103392904Y-75764380D02*
X103392904Y-74764380D01*
X103773857Y-74764380D01*
X103869095Y-74812000D01*
X103916714Y-74859619D01*
X103964333Y-74954857D01*
X103964333Y-75097714D01*
X103916714Y-75192952D01*
X103869095Y-75240571D01*
X103773857Y-75288190D01*
X103392904Y-75288190D01*
X104297666Y-74764380D02*
X104916714Y-74764380D01*
X104583380Y-75145333D01*
X104726238Y-75145333D01*
X104821476Y-75192952D01*
X104869095Y-75240571D01*
X104916714Y-75335809D01*
X104916714Y-75573904D01*
X104869095Y-75669142D01*
X104821476Y-75716761D01*
X104726238Y-75764380D01*
X104440523Y-75764380D01*
X104345285Y-75716761D01*
X104297666Y-75669142D01*
G04 #@! TO.C,R4*
X115648333Y-68652380D02*
X115315000Y-68176190D01*
X115076904Y-68652380D02*
X115076904Y-67652380D01*
X115457857Y-67652380D01*
X115553095Y-67700000D01*
X115600714Y-67747619D01*
X115648333Y-67842857D01*
X115648333Y-67985714D01*
X115600714Y-68080952D01*
X115553095Y-68128571D01*
X115457857Y-68176190D01*
X115076904Y-68176190D01*
X116505476Y-67985714D02*
X116505476Y-68652380D01*
X116267380Y-67604761D02*
X116029285Y-68319047D01*
X116648333Y-68319047D01*
G04 #@! TO.C,R5*
X97115333Y-91638380D02*
X96782000Y-91162190D01*
X96543904Y-91638380D02*
X96543904Y-90638380D01*
X96924857Y-90638380D01*
X97020095Y-90686000D01*
X97067714Y-90733619D01*
X97115333Y-90828857D01*
X97115333Y-90971714D01*
X97067714Y-91066952D01*
X97020095Y-91114571D01*
X96924857Y-91162190D01*
X96543904Y-91162190D01*
X98020095Y-90638380D02*
X97543904Y-90638380D01*
X97496285Y-91114571D01*
X97543904Y-91066952D01*
X97639142Y-91019333D01*
X97877238Y-91019333D01*
X97972476Y-91066952D01*
X98020095Y-91114571D01*
X98067714Y-91209809D01*
X98067714Y-91447904D01*
X98020095Y-91543142D01*
X97972476Y-91590761D01*
X97877238Y-91638380D01*
X97639142Y-91638380D01*
X97543904Y-91590761D01*
X97496285Y-91543142D01*
G04 #@! TO.C,R6*
X104998333Y-111322380D02*
X104665000Y-110846190D01*
X104426904Y-111322380D02*
X104426904Y-110322380D01*
X104807857Y-110322380D01*
X104903095Y-110370000D01*
X104950714Y-110417619D01*
X104998333Y-110512857D01*
X104998333Y-110655714D01*
X104950714Y-110750952D01*
X104903095Y-110798571D01*
X104807857Y-110846190D01*
X104426904Y-110846190D01*
X105855476Y-110322380D02*
X105665000Y-110322380D01*
X105569761Y-110370000D01*
X105522142Y-110417619D01*
X105426904Y-110560476D01*
X105379285Y-110750952D01*
X105379285Y-111131904D01*
X105426904Y-111227142D01*
X105474523Y-111274761D01*
X105569761Y-111322380D01*
X105760238Y-111322380D01*
X105855476Y-111274761D01*
X105903095Y-111227142D01*
X105950714Y-111131904D01*
X105950714Y-110893809D01*
X105903095Y-110798571D01*
X105855476Y-110750952D01*
X105760238Y-110703333D01*
X105569761Y-110703333D01*
X105474523Y-110750952D01*
X105426904Y-110798571D01*
X105379285Y-110893809D01*
G04 #@! TO.C,R7*
X167712380Y-64691666D02*
X167236190Y-65025000D01*
X167712380Y-65263095D02*
X166712380Y-65263095D01*
X166712380Y-64882142D01*
X166760000Y-64786904D01*
X166807619Y-64739285D01*
X166902857Y-64691666D01*
X167045714Y-64691666D01*
X167140952Y-64739285D01*
X167188571Y-64786904D01*
X167236190Y-64882142D01*
X167236190Y-65263095D01*
X166712380Y-64358333D02*
X166712380Y-63691666D01*
X167712380Y-64120238D01*
G04 #@! TO.C,R8*
X162632380Y-64691666D02*
X162156190Y-65025000D01*
X162632380Y-65263095D02*
X161632380Y-65263095D01*
X161632380Y-64882142D01*
X161680000Y-64786904D01*
X161727619Y-64739285D01*
X161822857Y-64691666D01*
X161965714Y-64691666D01*
X162060952Y-64739285D01*
X162108571Y-64786904D01*
X162156190Y-64882142D01*
X162156190Y-65263095D01*
X162060952Y-64120238D02*
X162013333Y-64215476D01*
X161965714Y-64263095D01*
X161870476Y-64310714D01*
X161822857Y-64310714D01*
X161727619Y-64263095D01*
X161680000Y-64215476D01*
X161632380Y-64120238D01*
X161632380Y-63929761D01*
X161680000Y-63834523D01*
X161727619Y-63786904D01*
X161822857Y-63739285D01*
X161870476Y-63739285D01*
X161965714Y-63786904D01*
X162013333Y-63834523D01*
X162060952Y-63929761D01*
X162060952Y-64120238D01*
X162108571Y-64215476D01*
X162156190Y-64263095D01*
X162251428Y-64310714D01*
X162441904Y-64310714D01*
X162537142Y-64263095D01*
X162584761Y-64215476D01*
X162632380Y-64120238D01*
X162632380Y-63929761D01*
X162584761Y-63834523D01*
X162537142Y-63786904D01*
X162441904Y-63739285D01*
X162251428Y-63739285D01*
X162156190Y-63786904D01*
X162108571Y-63834523D01*
X162060952Y-63929761D01*
G04 #@! TO.C,R9*
X96861333Y-107894380D02*
X96528000Y-107418190D01*
X96289904Y-107894380D02*
X96289904Y-106894380D01*
X96670857Y-106894380D01*
X96766095Y-106942000D01*
X96813714Y-106989619D01*
X96861333Y-107084857D01*
X96861333Y-107227714D01*
X96813714Y-107322952D01*
X96766095Y-107370571D01*
X96670857Y-107418190D01*
X96289904Y-107418190D01*
X97337523Y-107894380D02*
X97528000Y-107894380D01*
X97623238Y-107846761D01*
X97670857Y-107799142D01*
X97766095Y-107656285D01*
X97813714Y-107465809D01*
X97813714Y-107084857D01*
X97766095Y-106989619D01*
X97718476Y-106942000D01*
X97623238Y-106894380D01*
X97432761Y-106894380D01*
X97337523Y-106942000D01*
X97289904Y-106989619D01*
X97242285Y-107084857D01*
X97242285Y-107322952D01*
X97289904Y-107418190D01*
X97337523Y-107465809D01*
X97432761Y-107513428D01*
X97623238Y-107513428D01*
X97718476Y-107465809D01*
X97766095Y-107418190D01*
X97813714Y-107322952D01*
G04 #@! TO.C,R10*
X119762142Y-71192380D02*
X119428809Y-70716190D01*
X119190714Y-71192380D02*
X119190714Y-70192380D01*
X119571666Y-70192380D01*
X119666904Y-70240000D01*
X119714523Y-70287619D01*
X119762142Y-70382857D01*
X119762142Y-70525714D01*
X119714523Y-70620952D01*
X119666904Y-70668571D01*
X119571666Y-70716190D01*
X119190714Y-70716190D01*
X120714523Y-71192380D02*
X120143095Y-71192380D01*
X120428809Y-71192380D02*
X120428809Y-70192380D01*
X120333571Y-70335238D01*
X120238333Y-70430476D01*
X120143095Y-70478095D01*
X121333571Y-70192380D02*
X121428809Y-70192380D01*
X121524047Y-70240000D01*
X121571666Y-70287619D01*
X121619285Y-70382857D01*
X121666904Y-70573333D01*
X121666904Y-70811428D01*
X121619285Y-71001904D01*
X121571666Y-71097142D01*
X121524047Y-71144761D01*
X121428809Y-71192380D01*
X121333571Y-71192380D01*
X121238333Y-71144761D01*
X121190714Y-71097142D01*
X121143095Y-71001904D01*
X121095476Y-70811428D01*
X121095476Y-70573333D01*
X121143095Y-70382857D01*
X121190714Y-70287619D01*
X121238333Y-70240000D01*
X121333571Y-70192380D01*
G04 #@! TO.C,R11*
X115181142Y-80208380D02*
X114847809Y-79732190D01*
X114609714Y-80208380D02*
X114609714Y-79208380D01*
X114990666Y-79208380D01*
X115085904Y-79256000D01*
X115133523Y-79303619D01*
X115181142Y-79398857D01*
X115181142Y-79541714D01*
X115133523Y-79636952D01*
X115085904Y-79684571D01*
X114990666Y-79732190D01*
X114609714Y-79732190D01*
X116133523Y-80208380D02*
X115562095Y-80208380D01*
X115847809Y-80208380D02*
X115847809Y-79208380D01*
X115752571Y-79351238D01*
X115657333Y-79446476D01*
X115562095Y-79494095D01*
X117085904Y-80208380D02*
X116514476Y-80208380D01*
X116800190Y-80208380D02*
X116800190Y-79208380D01*
X116704952Y-79351238D01*
X116609714Y-79446476D01*
X116514476Y-79494095D01*
G04 #@! TO.C,R12*
X105783142Y-100528380D02*
X105449809Y-100052190D01*
X105211714Y-100528380D02*
X105211714Y-99528380D01*
X105592666Y-99528380D01*
X105687904Y-99576000D01*
X105735523Y-99623619D01*
X105783142Y-99718857D01*
X105783142Y-99861714D01*
X105735523Y-99956952D01*
X105687904Y-100004571D01*
X105592666Y-100052190D01*
X105211714Y-100052190D01*
X106735523Y-100528380D02*
X106164095Y-100528380D01*
X106449809Y-100528380D02*
X106449809Y-99528380D01*
X106354571Y-99671238D01*
X106259333Y-99766476D01*
X106164095Y-99814095D01*
X107116476Y-99623619D02*
X107164095Y-99576000D01*
X107259333Y-99528380D01*
X107497428Y-99528380D01*
X107592666Y-99576000D01*
X107640285Y-99623619D01*
X107687904Y-99718857D01*
X107687904Y-99814095D01*
X107640285Y-99956952D01*
X107068857Y-100528380D01*
X107687904Y-100528380D01*
G04 #@! TO.C,R13*
X136771142Y-100782380D02*
X136437809Y-100306190D01*
X136199714Y-100782380D02*
X136199714Y-99782380D01*
X136580666Y-99782380D01*
X136675904Y-99830000D01*
X136723523Y-99877619D01*
X136771142Y-99972857D01*
X136771142Y-100115714D01*
X136723523Y-100210952D01*
X136675904Y-100258571D01*
X136580666Y-100306190D01*
X136199714Y-100306190D01*
X137723523Y-100782380D02*
X137152095Y-100782380D01*
X137437809Y-100782380D02*
X137437809Y-99782380D01*
X137342571Y-99925238D01*
X137247333Y-100020476D01*
X137152095Y-100068095D01*
X138056857Y-99782380D02*
X138675904Y-99782380D01*
X138342571Y-100163333D01*
X138485428Y-100163333D01*
X138580666Y-100210952D01*
X138628285Y-100258571D01*
X138675904Y-100353809D01*
X138675904Y-100591904D01*
X138628285Y-100687142D01*
X138580666Y-100734761D01*
X138485428Y-100782380D01*
X138199714Y-100782380D01*
X138104476Y-100734761D01*
X138056857Y-100687142D01*
G04 #@! TO.C,R14*
X123817142Y-100782380D02*
X123483809Y-100306190D01*
X123245714Y-100782380D02*
X123245714Y-99782380D01*
X123626666Y-99782380D01*
X123721904Y-99830000D01*
X123769523Y-99877619D01*
X123817142Y-99972857D01*
X123817142Y-100115714D01*
X123769523Y-100210952D01*
X123721904Y-100258571D01*
X123626666Y-100306190D01*
X123245714Y-100306190D01*
X124769523Y-100782380D02*
X124198095Y-100782380D01*
X124483809Y-100782380D02*
X124483809Y-99782380D01*
X124388571Y-99925238D01*
X124293333Y-100020476D01*
X124198095Y-100068095D01*
X125626666Y-100115714D02*
X125626666Y-100782380D01*
X125388571Y-99734761D02*
X125150476Y-100449047D01*
X125769523Y-100449047D01*
G04 #@! TO.C,R15*
X136263142Y-105862380D02*
X135929809Y-105386190D01*
X135691714Y-105862380D02*
X135691714Y-104862380D01*
X136072666Y-104862380D01*
X136167904Y-104910000D01*
X136215523Y-104957619D01*
X136263142Y-105052857D01*
X136263142Y-105195714D01*
X136215523Y-105290952D01*
X136167904Y-105338571D01*
X136072666Y-105386190D01*
X135691714Y-105386190D01*
X137215523Y-105862380D02*
X136644095Y-105862380D01*
X136929809Y-105862380D02*
X136929809Y-104862380D01*
X136834571Y-105005238D01*
X136739333Y-105100476D01*
X136644095Y-105148095D01*
X138120285Y-104862380D02*
X137644095Y-104862380D01*
X137596476Y-105338571D01*
X137644095Y-105290952D01*
X137739333Y-105243333D01*
X137977428Y-105243333D01*
X138072666Y-105290952D01*
X138120285Y-105338571D01*
X138167904Y-105433809D01*
X138167904Y-105671904D01*
X138120285Y-105767142D01*
X138072666Y-105814761D01*
X137977428Y-105862380D01*
X137739333Y-105862380D01*
X137644095Y-105814761D01*
X137596476Y-105767142D01*
G04 #@! TO.C,R16*
X124071142Y-106116380D02*
X123737809Y-105640190D01*
X123499714Y-106116380D02*
X123499714Y-105116380D01*
X123880666Y-105116380D01*
X123975904Y-105164000D01*
X124023523Y-105211619D01*
X124071142Y-105306857D01*
X124071142Y-105449714D01*
X124023523Y-105544952D01*
X123975904Y-105592571D01*
X123880666Y-105640190D01*
X123499714Y-105640190D01*
X125023523Y-106116380D02*
X124452095Y-106116380D01*
X124737809Y-106116380D02*
X124737809Y-105116380D01*
X124642571Y-105259238D01*
X124547333Y-105354476D01*
X124452095Y-105402095D01*
X125880666Y-105116380D02*
X125690190Y-105116380D01*
X125594952Y-105164000D01*
X125547333Y-105211619D01*
X125452095Y-105354476D01*
X125404476Y-105544952D01*
X125404476Y-105925904D01*
X125452095Y-106021142D01*
X125499714Y-106068761D01*
X125594952Y-106116380D01*
X125785428Y-106116380D01*
X125880666Y-106068761D01*
X125928285Y-106021142D01*
X125975904Y-105925904D01*
X125975904Y-105687809D01*
X125928285Y-105592571D01*
X125880666Y-105544952D01*
X125785428Y-105497333D01*
X125594952Y-105497333D01*
X125499714Y-105544952D01*
X125452095Y-105592571D01*
X125404476Y-105687809D01*
G04 #@! TO.C,U1*
D11*
X81788095Y-85762380D02*
X81788095Y-86571904D01*
X81835714Y-86667142D01*
X81883333Y-86714761D01*
X81978571Y-86762380D01*
X82169047Y-86762380D01*
X82264285Y-86714761D01*
X82311904Y-86667142D01*
X82359523Y-86571904D01*
X82359523Y-85762380D01*
X83359523Y-86762380D02*
X82788095Y-86762380D01*
X83073809Y-86762380D02*
X83073809Y-85762380D01*
X82978571Y-85905238D01*
X82883333Y-86000476D01*
X82788095Y-86048095D01*
X86442857Y-106012380D02*
X87061904Y-106012380D01*
X86728571Y-106393333D01*
X86871428Y-106393333D01*
X86966666Y-106440952D01*
X87014285Y-106488571D01*
X87061904Y-106583809D01*
X87061904Y-106821904D01*
X87014285Y-106917142D01*
X86966666Y-106964761D01*
X86871428Y-107012380D01*
X86585714Y-107012380D01*
X86490476Y-106964761D01*
X86442857Y-106917142D01*
X87347619Y-106012380D02*
X87680952Y-107012380D01*
X88014285Y-106012380D01*
X88252380Y-106012380D02*
X88871428Y-106012380D01*
X88538095Y-106393333D01*
X88680952Y-106393333D01*
X88776190Y-106440952D01*
X88823809Y-106488571D01*
X88871428Y-106583809D01*
X88871428Y-106821904D01*
X88823809Y-106917142D01*
X88776190Y-106964761D01*
X88680952Y-107012380D01*
X88395238Y-107012380D01*
X88300000Y-106964761D01*
X88252380Y-106917142D01*
X89300000Y-106631428D02*
X90061904Y-106631428D01*
X75692857Y-106012380D02*
X76311904Y-106012380D01*
X75978571Y-106393333D01*
X76121428Y-106393333D01*
X76216666Y-106440952D01*
X76264285Y-106488571D01*
X76311904Y-106583809D01*
X76311904Y-106821904D01*
X76264285Y-106917142D01*
X76216666Y-106964761D01*
X76121428Y-107012380D01*
X75835714Y-107012380D01*
X75740476Y-106964761D01*
X75692857Y-106917142D01*
X76597619Y-106012380D02*
X76930952Y-107012380D01*
X77264285Y-106012380D01*
X77502380Y-106012380D02*
X78121428Y-106012380D01*
X77788095Y-106393333D01*
X77930952Y-106393333D01*
X78026190Y-106440952D01*
X78073809Y-106488571D01*
X78121428Y-106583809D01*
X78121428Y-106821904D01*
X78073809Y-106917142D01*
X78026190Y-106964761D01*
X77930952Y-107012380D01*
X77645238Y-107012380D01*
X77550000Y-106964761D01*
X77502380Y-106917142D01*
X78550000Y-106631428D02*
X79311904Y-106631428D01*
X78930952Y-107012380D02*
X78930952Y-106250476D01*
X86585714Y-91762380D02*
X86919047Y-92762380D01*
X87252380Y-91762380D01*
X87585714Y-92762380D02*
X87585714Y-91762380D01*
X88061904Y-92762380D02*
X88061904Y-91762380D01*
X88633333Y-92762380D01*
X88633333Y-91762380D01*
X89109523Y-92381428D02*
X89871428Y-92381428D01*
X75585714Y-91762380D02*
X75919047Y-92762380D01*
X76252380Y-91762380D01*
X76585714Y-92762380D02*
X76585714Y-91762380D01*
X77061904Y-92762380D02*
X77061904Y-91762380D01*
X77633333Y-92762380D01*
X77633333Y-91762380D01*
X78109523Y-92381428D02*
X78871428Y-92381428D01*
X78490476Y-92762380D02*
X78490476Y-92000476D01*
G04 #@! TO.C,U2*
D12*
X117348095Y-59352380D02*
X117348095Y-60161904D01*
X117395714Y-60257142D01*
X117443333Y-60304761D01*
X117538571Y-60352380D01*
X117729047Y-60352380D01*
X117824285Y-60304761D01*
X117871904Y-60257142D01*
X117919523Y-60161904D01*
X117919523Y-59352380D01*
X118348095Y-59447619D02*
X118395714Y-59400000D01*
X118490952Y-59352380D01*
X118729047Y-59352380D01*
X118824285Y-59400000D01*
X118871904Y-59447619D01*
X118919523Y-59542857D01*
X118919523Y-59638095D01*
X118871904Y-59780952D01*
X118300476Y-60352380D01*
X118919523Y-60352380D01*
G04 #@! TO.C,J2*
X110156666Y-113292380D02*
X110156666Y-114006666D01*
X110109047Y-114149523D01*
X110013809Y-114244761D01*
X109870952Y-114292380D01*
X109775714Y-114292380D01*
X110585238Y-113387619D02*
X110632857Y-113340000D01*
X110728095Y-113292380D01*
X110966190Y-113292380D01*
X111061428Y-113340000D01*
X111109047Y-113387619D01*
X111156666Y-113482857D01*
X111156666Y-113578095D01*
X111109047Y-113720952D01*
X110537619Y-114292380D01*
X111156666Y-114292380D01*
G04 #@! TD*
M02*
