M48
;DRILL file {KiCad 5.0.2+dfsg1-1} date Mon 11 Feb 2019 07:24:36 AEDT
;FORMAT={-:-/ absolute / inch / decimal}
FMAT,2
INCH,TZ
T1C0.0315
T2C0.0394
T3C0.0472
T4C0.0591
T5C0.1181
T6C0.1260
%
G90
G05
T1
X3.28Y-4.03
X3.46Y-2.79
X3.66Y-3.77
X3.82Y-3.77
X3.94Y-3.18
X3.94Y-3.38
X3.9678Y-2.91
X4.0178Y-2.86
X4.04Y-2.62
X4.0678Y-2.81
X4.08Y-3.81
X4.15Y-2.81
X4.52Y-3.26
X4.53Y-2.94
X4.6Y-3.37
X4.64Y-3.68
X4.68Y-2.7
X4.69Y-3.61
X4.7Y-3.52
X4.81Y-4.15
X4.81Y-4.3
X4.83Y-3.3
X4.85Y-3.04
X4.93Y-3.77
X5.48Y-2.92
X5.68Y-3.12
X5.95Y-3.86
X6.54Y-2.71
X6.54Y-2.78
X4.35Y-2.45
X4.35Y-2.55
X4.35Y-2.65
X4.35Y-2.75
X4.35Y-2.85
X4.35Y-2.95
X4.35Y-3.05
X4.35Y-3.15
X4.35Y-3.25
X4.35Y-3.35
X4.35Y-3.45
X4.35Y-3.55
X4.35Y-3.65
X5.15Y-2.45
X5.15Y-2.55
X5.15Y-2.65
X5.15Y-2.75
X5.15Y-2.85
X5.15Y-2.95
X5.15Y-3.05
X5.15Y-3.15
X5.15Y-3.25
X5.15Y-3.35
X5.15Y-3.45
X5.15Y-3.55
X5.15Y-3.65
X5.9524Y-2.5024
X5.9524Y-2.6024
X6.0524Y-2.5024
X6.0524Y-2.6024
X6.1524Y-2.5024
X6.1524Y-2.6024
X6.2524Y-2.5024
X6.2524Y-2.6024
T2
X3.0138Y-3.5063
X3.0138Y-4.2937
X3.4862Y-3.5063
X3.4862Y-4.2937
T3
X3.4Y-4.6
X3.6Y-4.6
X5.1Y-4.6
X5.3Y-4.6
X5.95Y-4.6
X6.15Y-4.6
X3.2Y-2.9
X3.2Y-3.1
X4.05Y-4.6
X4.25Y-4.6
X4.45Y-4.6
X4.65Y-4.6
T4
X5.9524Y-4.2024
X6.1524Y-4.2024
X6.3524Y-4.2024
X6.5524Y-4.2024
T5
X5.665Y-2.615
X5.665Y-4.1898
X7.2398Y-2.615
X7.2398Y-4.1898
T6
X7.2Y-4.7
X3.1Y-4.7
X3.1Y-2.55
T0
M30
